<svg width="800" height="600" viewBox="0 0 800 600" fill="none" xmlns="http://www.w3.org/2000/svg">
<g clip-path="url(#clip0_669_26)">
<rect x="1" y="1" width="798" height="598" rx="9" fill="#D9D9D9" stroke="#578965" stroke-width="2"/>
<mask id="mask0_669_26" style="mask-type:alpha" maskUnits="userSpaceOnUse" x="0" y="0" width="800" height="600">
<rect x="1" y="1" width="798" height="598" rx="9" fill="#D9D9D9" stroke="#578965" stroke-width="2"/>
</mask>
<g mask="url(#mask0_669_26)">
<rect width="1018.49" height="134.366" transform="matrix(0.811611 -0.584198 0.531233 0.847226 -53.8796 544.968)" fill="#3D563F"/>
<path d="M267.173 382.198L264.314 384.255C263.607 383.519 262.838 382.977 262.008 382.632C261.185 382.281 260.336 382.1 259.46 382.09C258.586 382.067 257.718 382.203 256.855 382.498C255.991 382.793 255.168 383.223 254.384 383.787C252.954 384.816 251.895 386.126 251.207 387.715C250.527 389.299 250.306 391.071 250.542 393.032C250.786 394.987 251.577 397.031 252.915 399.166C254.253 401.3 255.721 402.858 257.318 403.839C258.922 404.815 260.537 405.265 262.163 405.19C263.796 405.109 265.328 404.554 266.758 403.525C267.542 402.961 268.224 402.306 268.806 401.561C269.388 400.817 269.836 400.011 270.151 399.144C270.469 398.263 270.632 397.348 270.639 396.4C270.65 395.438 270.473 394.47 270.109 393.498L272.968 391.44C273.542 392.855 273.857 394.264 273.912 395.669C273.967 397.073 273.791 398.428 273.383 399.735C272.97 401.033 272.35 402.242 271.524 403.361C270.705 404.474 269.699 405.459 268.508 406.317C266.494 407.766 264.382 408.542 262.17 408.643C259.958 408.745 257.809 408.172 255.722 406.926C253.636 405.68 251.778 403.757 250.148 401.157C248.519 398.558 247.56 395.987 247.272 393.447C246.984 390.906 247.302 388.558 248.226 386.402C249.15 384.247 250.619 382.445 252.633 380.995C253.824 380.138 255.056 379.514 256.328 379.122C257.607 378.726 258.888 378.572 260.171 378.662C261.449 378.743 262.685 379.077 263.877 379.662C265.065 380.24 266.163 381.085 267.173 382.198ZM294.613 369.156C296.243 371.755 297.202 374.325 297.49 376.866C297.777 379.407 297.459 381.755 296.535 383.91C295.611 386.066 294.142 387.868 292.128 389.317C290.115 390.767 288.002 391.542 285.79 391.644C283.578 391.745 281.429 391.173 279.343 389.926C277.256 388.68 275.398 386.757 273.769 384.158C272.139 381.558 271.18 378.988 270.892 376.447C270.604 373.907 270.922 371.558 271.847 369.403C272.771 367.248 274.24 365.445 276.253 363.996C278.267 362.547 280.38 361.771 282.592 361.67C284.804 361.568 286.953 362.141 289.039 363.387C291.125 364.633 292.983 366.556 294.613 369.156ZM291.846 371.147C290.508 369.013 289.037 367.458 287.432 366.482C285.835 365.5 284.22 365.05 282.587 365.131C280.961 365.207 279.433 365.759 278.004 366.788C276.574 367.817 275.516 369.126 274.828 370.716C274.148 372.299 273.926 374.072 274.162 376.032C274.406 377.987 275.198 380.032 276.536 382.166C277.874 384.3 279.341 385.858 280.938 386.84C282.542 387.816 284.158 388.266 285.783 388.19C287.417 388.109 288.948 387.554 290.378 386.525C291.808 385.496 292.862 384.19 293.542 382.606C294.23 381.017 294.452 379.244 294.208 377.289C293.971 375.329 293.184 373.281 291.846 371.147ZM291.695 353.372L295.107 350.916L315.958 365.6L316.235 365.401L311.432 339.167L314.845 336.711L330.298 361.358L327.623 363.283L315.883 344.557L315.652 344.723L320.014 368.759L317.431 370.618L298.312 357.202L298.082 357.368L309.822 376.094L307.147 378.019L291.695 353.372ZM323.437 330.527L338.89 355.174L336.03 357.232L320.578 332.585L323.437 330.527ZM347.893 312.926L363.346 337.573L360.579 339.565L335.58 329.473L335.349 329.638L347.482 348.991L344.623 351.048L329.17 326.401L331.937 324.409L357.012 334.517L357.243 334.351L345.08 314.95L347.893 312.926ZM374.584 304.894C373.823 304.266 373.033 303.781 372.216 303.438C371.401 303.081 370.566 302.878 369.71 302.83C368.862 302.777 368.006 302.887 367.14 303.161C366.274 303.435 365.415 303.878 364.562 304.492C363.163 305.499 362.127 306.792 361.455 308.37C360.782 309.949 360.568 311.715 360.812 313.67C361.056 315.625 361.848 317.67 363.186 319.804C364.524 321.938 365.995 323.494 367.599 324.469C369.204 325.445 370.827 325.89 372.468 325.803C374.109 325.717 375.66 325.148 377.12 324.097C378.473 323.123 379.476 321.965 380.128 320.622C380.784 319.266 381.052 317.826 380.935 316.304C380.82 314.769 380.289 313.247 379.344 311.738L380.341 311.3L373.239 316.411L371.579 313.764L380.571 307.292L382.231 309.939C383.504 311.969 384.196 314.033 384.306 316.131C384.424 318.223 384.016 320.205 383.082 322.077C382.15 323.935 380.746 325.539 378.871 326.889C376.78 328.394 374.621 329.202 372.394 329.315C370.174 329.422 368.029 328.847 365.958 327.589C363.895 326.326 362.048 324.395 360.419 321.796C359.196 319.846 358.347 317.913 357.871 315.997C357.397 314.067 357.277 312.221 357.51 310.458C357.743 308.695 358.307 307.067 359.2 305.574C360.093 304.081 361.297 302.79 362.811 301.7C364.056 300.804 365.34 300.166 366.663 299.784C367.988 299.389 369.297 299.245 370.59 299.35C371.886 299.442 373.128 299.777 374.315 300.355C375.498 300.924 376.571 301.729 377.536 302.77L374.584 304.894ZM403.649 281.741C402.746 280.621 401.591 280.078 400.185 280.112C398.779 280.146 397.361 280.677 395.931 281.706C394.886 282.459 394.082 283.293 393.519 284.211C392.964 285.122 392.661 286.045 392.611 286.978C392.568 287.905 392.792 288.762 393.285 289.549C393.698 290.207 394.202 290.664 394.799 290.922C395.398 291.166 396.034 291.273 396.707 291.243C397.374 291.205 398.032 291.098 398.681 290.923C399.324 290.739 399.903 290.55 400.416 290.355L403.237 289.303C403.957 289.029 404.787 288.769 405.727 288.524C406.674 288.273 407.654 288.155 408.668 288.171C409.684 288.173 410.668 288.408 411.619 288.876C412.571 289.344 413.409 290.156 414.133 291.311C414.968 292.643 415.388 294.087 415.394 295.643C415.407 297.194 414.974 298.746 414.095 300.298C413.225 301.844 411.882 303.27 410.068 304.576C408.377 305.793 406.735 306.562 405.14 306.883C403.553 307.198 402.087 307.101 400.741 306.591C399.402 306.075 398.265 305.177 397.327 303.895L400.279 301.771C400.939 302.646 401.722 303.201 402.627 303.435C403.534 303.655 404.485 303.623 405.478 303.339C406.474 303.041 407.44 302.555 408.378 301.88C409.47 301.095 410.334 300.205 410.971 299.211C411.603 298.208 411.964 297.192 412.054 296.161C412.139 295.122 411.899 294.153 411.336 293.254C410.823 292.436 410.186 291.928 409.426 291.73C408.666 291.531 407.828 291.529 406.912 291.723C405.996 291.916 405.048 292.191 404.067 292.548L400.618 293.772C398.426 294.546 396.471 294.807 394.751 294.554C393.031 294.302 391.65 293.345 390.609 291.684C389.744 290.304 389.347 288.844 389.418 287.302C389.491 285.747 389.957 284.248 390.814 282.804C391.674 281.347 392.857 280.076 394.363 278.992C395.885 277.897 397.417 277.208 398.957 276.926C400.493 276.636 401.914 276.731 403.219 277.212C404.532 277.688 405.598 278.533 406.416 279.749L403.649 281.741ZM435.225 267.957C436.855 270.557 437.814 273.127 438.102 275.668C438.389 278.208 438.071 280.557 437.147 282.712C436.223 284.867 434.754 286.67 432.74 288.119C430.727 289.568 428.614 290.344 426.402 290.445C424.19 290.547 422.041 289.974 419.955 288.728C417.868 287.482 416.01 285.559 414.381 282.959C412.751 280.36 411.792 277.79 411.504 275.249C411.216 272.708 411.535 270.36 412.459 268.205C413.383 266.049 414.852 264.247 416.865 262.798C418.879 261.348 420.992 260.573 423.204 260.471C425.416 260.37 427.565 260.942 429.651 262.189C431.737 263.435 433.596 265.358 435.225 267.957ZM432.458 269.949C431.12 267.815 429.649 266.26 428.044 265.284C426.448 264.302 424.832 263.852 423.199 263.933C421.573 264.009 420.046 264.561 418.616 265.59C417.186 266.619 416.128 267.928 415.44 269.517C414.76 271.101 414.538 272.873 414.774 274.834C415.019 276.789 415.81 278.834 417.148 280.968C418.486 283.102 419.953 284.66 421.55 285.641C423.155 286.617 424.77 287.067 426.395 286.992C428.029 286.911 429.56 286.356 430.99 285.327C432.42 284.298 433.474 282.992 434.155 281.408C434.842 279.818 435.064 278.046 434.82 276.091C434.584 274.13 433.796 272.083 432.458 269.949ZM459.955 250.159C461.585 252.759 462.544 255.329 462.832 257.87C463.119 260.41 462.801 262.758 461.877 264.914C460.953 267.069 459.484 268.872 457.47 270.321C455.457 271.77 453.344 272.546 451.132 272.647C448.92 272.749 446.771 272.176 444.685 270.93C442.598 269.684 440.74 267.761 439.111 265.161C437.481 262.562 436.522 259.991 436.234 257.451C435.946 254.91 436.265 252.562 437.189 250.407C438.113 248.251 439.582 246.449 441.595 244.999C443.609 243.55 445.722 242.775 447.934 242.673C450.146 242.572 452.295 243.144 454.381 244.39C456.467 245.637 458.325 247.56 459.955 250.159ZM457.188 252.151C455.85 250.016 454.379 248.461 452.774 247.485C451.178 246.504 449.562 246.054 447.929 246.135C446.303 246.21 444.776 246.763 443.346 247.792C441.916 248.82 440.858 250.13 440.17 251.719C439.49 253.303 439.268 255.075 439.504 257.036C439.749 258.991 440.54 261.036 441.878 263.17C443.216 265.304 444.683 266.862 446.28 267.843C447.884 268.819 449.5 269.269 451.125 269.194C452.759 269.113 454.29 268.558 455.72 267.529C457.15 266.5 458.204 265.194 458.884 263.61C459.572 262.02 459.794 260.248 459.55 258.293C459.313 256.332 458.526 254.285 457.188 252.151ZM475.76 220.9L491.212 245.548L488.445 247.539L463.446 237.447L463.216 237.613L475.348 256.965L472.489 259.023L457.037 234.375L459.804 232.384L484.879 242.491L485.11 242.325L472.947 222.925L475.76 220.9ZM484.709 214.459L495.585 232.341L492.911 234.266L481.574 216.716L484.709 214.459ZM498.715 240.428C498.146 240.837 497.525 240.976 496.851 240.844C496.177 240.712 495.654 240.349 495.281 239.755C494.909 239.161 494.793 238.505 494.934 237.787C495.075 237.069 495.43 236.505 495.998 236.095C496.567 235.686 497.189 235.547 497.863 235.679C498.536 235.811 499.06 236.174 499.432 236.768C499.678 237.161 499.809 237.591 499.823 238.059C499.844 238.52 499.761 238.965 499.571 239.392C499.384 239.806 499.099 240.151 498.715 240.428Z" fill="white"/>
</g>
</g>
<defs>
<clipPath id="clip0_669_26">
<rect width="800" height="600" fill="white"/>
</clipPath>
</defs>
</svg>
