<svg width="121" height="145" viewBox="0 0 121 145" fill="none" xmlns="http://www.w3.org/2000/svg">
<path d="M61.7699 1.86904C61.9142 1.79427 62.0858 1.79427 62.2301 1.86904L62.9178 0.542178L62.2301 1.86904L111.326 27.3144C111.491 27.4003 111.595 27.5716 111.595 27.7583V78.29C111.595 78.4768 111.491 78.648 111.326 78.7339L62.2301 104.179C62.0858 104.254 61.9142 104.254 61.7699 104.179L12.6744 78.7339L11.9842 80.0657L12.6744 78.7339C12.5086 78.648 12.4045 78.4768 12.4045 78.29V27.7583C12.4045 27.5716 12.5086 27.4003 12.6744 27.3144L61.7699 1.86904L61.0822 0.542179L61.7699 1.86904Z" stroke="#29803C" stroke-width="3"/>
<path d="M41.097 140.762C39.6597 140.762 38.4204 140.425 37.379 139.75C36.3377 139.061 35.5384 138.115 34.981 136.912C34.4384 135.71 34.167 134.346 34.167 132.82C34.167 131.295 34.4384 129.931 34.981 128.728C35.5384 127.526 36.3377 126.587 37.379 125.912C38.4204 125.223 39.6597 124.878 41.097 124.878C42.8277 124.878 44.2577 125.37 45.387 126.352C46.5164 127.32 47.2717 128.633 47.653 130.29H45.783C45.475 129.161 44.9104 128.266 44.089 127.606C43.2677 126.932 42.2777 126.594 41.119 126.594C39.5204 126.594 38.2957 127.159 37.445 128.288C36.5944 129.403 36.169 130.906 36.169 132.798C36.169 134.705 36.5944 136.223 37.445 137.352C38.2957 138.467 39.5204 139.024 41.119 139.024C42.219 139.024 43.165 138.731 43.957 138.144C44.749 137.543 45.3137 136.744 45.651 135.746H47.521C47.1104 137.272 46.3477 138.489 45.233 139.398C44.133 140.308 42.7544 140.762 41.097 140.762ZM55.3511 140.784C54.1631 140.784 53.1438 140.542 52.2931 140.058C51.4571 139.56 50.8265 138.922 50.4011 138.144C49.9758 137.367 49.7631 136.553 49.7631 135.702V135.592H51.8531V135.702C51.8531 136.216 51.9705 136.729 52.2051 137.242C52.4545 137.756 52.8431 138.188 53.3711 138.54C53.8991 138.878 54.5738 139.046 55.3951 139.046C56.3631 139.046 57.1625 138.797 57.7931 138.298C58.4238 137.8 58.7391 137.125 58.7391 136.274C58.7391 135.57 58.5045 135.013 58.0351 134.602C57.5805 134.177 56.9938 133.891 56.2751 133.744L54.0311 133.326C51.4498 132.754 50.1591 131.398 50.1591 129.256C50.1591 128.376 50.3718 127.606 50.7971 126.946C51.2225 126.286 51.8091 125.78 52.5571 125.428C53.3198 125.062 54.1998 124.878 55.1971 124.878C56.3265 124.878 57.2945 125.106 58.1011 125.56C58.9078 126.015 59.5165 126.609 59.9271 127.342C60.3378 128.061 60.5431 128.809 60.5431 129.586V129.674H58.4531V129.608C58.4531 129.168 58.3431 128.721 58.1231 128.266C57.9178 127.797 57.5658 127.394 57.0671 127.056C56.5831 126.719 55.9378 126.55 55.1311 126.55C54.2071 126.55 53.4665 126.807 52.9091 127.32C52.3665 127.834 52.0951 128.472 52.0951 129.234C52.0951 129.88 52.3078 130.408 52.7331 130.818C53.1585 131.229 53.7378 131.508 54.4711 131.654L56.4951 132.05C59.3258 132.622 60.7411 134.008 60.7411 136.208C60.7411 137.103 60.5138 137.895 60.0591 138.584C59.6191 139.274 58.9885 139.816 58.1671 140.212C57.3458 140.594 56.4071 140.784 55.3511 140.784ZM68.6715 140.784C67.4835 140.784 66.4641 140.542 65.6135 140.058C64.7775 139.56 64.1468 138.922 63.7215 138.144C63.2961 137.367 63.0835 136.553 63.0835 135.702V135.592H65.1735V135.702C65.1735 136.216 65.2908 136.729 65.5255 137.242C65.7748 137.756 66.1635 138.188 66.6915 138.54C67.2195 138.878 67.8941 139.046 68.7155 139.046C69.6835 139.046 70.4828 138.797 71.1135 138.298C71.7441 137.8 72.0595 137.125 72.0595 136.274C72.0595 135.57 71.8248 135.013 71.3555 134.602C70.9008 134.177 70.3141 133.891 69.5955 133.744L67.3515 133.326C64.7701 132.754 63.4795 131.398 63.4795 129.256C63.4795 128.376 63.6921 127.606 64.1175 126.946C64.5428 126.286 65.1295 125.78 65.8775 125.428C66.6401 125.062 67.5201 124.878 68.5175 124.878C69.6468 124.878 70.6148 125.106 71.4215 125.56C72.2281 126.015 72.8368 126.609 73.2475 127.342C73.6581 128.061 73.8635 128.809 73.8635 129.586V129.674H71.7735V129.608C71.7735 129.168 71.6635 128.721 71.4435 128.266C71.2381 127.797 70.8861 127.394 70.3875 127.056C69.9035 126.719 69.2581 126.55 68.4515 126.55C67.5275 126.55 66.7868 126.807 66.2295 127.32C65.6868 127.834 65.4155 128.472 65.4155 129.234C65.4155 129.88 65.6281 130.408 66.0535 130.818C66.4788 131.229 67.0581 131.508 67.7915 131.654L69.8155 132.05C72.6461 132.622 74.0615 134.008 74.0615 136.208C74.0615 137.103 73.8341 137.895 73.3795 138.584C72.9395 139.274 72.3088 139.816 71.4875 140.212C70.6661 140.594 69.7275 140.784 68.6715 140.784ZM81.7754 140.784C80.1914 140.784 78.9594 140.403 78.0794 139.64C77.214 138.878 76.6787 137.939 76.4734 136.824H78.3874C78.5927 137.499 78.974 138.042 79.5314 138.452C80.1034 138.863 80.844 139.068 81.7534 139.068C82.8387 139.068 83.6527 138.797 84.1954 138.254C84.7527 137.712 85.0314 137.03 85.0314 136.208C85.0314 135.299 84.716 134.602 84.0854 134.118C83.4547 133.634 82.6774 133.392 81.7534 133.392H80.3014V131.874H81.6654C82.5454 131.874 83.2934 131.669 83.9094 131.258C84.5254 130.848 84.8334 130.18 84.8334 129.256C84.8334 128.406 84.5474 127.731 83.9754 127.232C83.4034 126.734 82.648 126.484 81.7094 126.484C80.8294 126.484 80.1327 126.69 79.6194 127.1C79.1207 127.511 78.798 128.046 78.6514 128.706H76.8034C76.9794 127.65 77.456 126.748 78.2334 126C79.0107 125.238 80.1767 124.856 81.7314 124.856C82.846 124.856 83.7774 125.062 84.5254 125.472C85.2734 125.883 85.8234 126.418 86.1754 127.078C86.5274 127.724 86.7034 128.42 86.7034 129.168C86.7034 129.96 86.5274 130.613 86.1754 131.126C85.8234 131.625 85.4347 131.999 85.0094 132.248C84.5987 132.483 84.32 132.6 84.1734 132.6V132.732C84.364 132.747 84.672 132.864 85.0974 133.084C85.5374 133.304 85.9407 133.686 86.3074 134.228C86.6887 134.771 86.8794 135.482 86.8794 136.362C86.8794 137.169 86.696 137.91 86.3294 138.584C85.9627 139.244 85.3907 139.78 84.6134 140.19C83.8507 140.586 82.9047 140.784 81.7754 140.784Z" fill="black"/>
<path d="M88.1304 80.9392L64.3575 86.0916L40.5841 80.9392L35.0983 33.1007H93.617L88.1304 80.9392Z" fill="#2062AF"/>
<path d="M59.9995 37.1977V82.2043L60.0533 82.216L79.2917 78.0462L83.7323 37.1977H59.9995Z" fill="#3C9CD7"/>
<path d="M49.0935 25.3276V22.4802H54.2546V19.3646H45.2227V28.1707H54.2546V25.3276H49.0935ZM63.5388 22.4802H67.147V19.3646H58.1143V22.4802C59.3228 23.4529 59.953 23.9185 61.7008 25.3253C60.6791 25.3253 58.1143 25.3283 58.1143 25.3281V28.1707H67.147V25.3276L63.5388 22.4802ZM76.341 22.4802H79.9491V19.3646H70.9161V22.4802C72.1245 23.4529 72.7551 23.9185 74.5029 25.3253C73.4815 25.3253 70.9161 25.3283 70.9161 25.3281V28.1707H79.9493V25.3276L76.341 22.4802Z" fill="black"/>
<path d="M62.5158 49.4947L45.5007 55.1987L46.0649 60.846L62.5158 55.1843L80.0152 49.1621L80.7407 43.3851L62.5158 49.4947Z" fill="white"/>
<path d="M45.5005 55.5489L46.0647 61.1963L62.5156 55.5346V49.845L45.5005 55.5489Z" fill="url(#paint0_linear_303_28)"/>
<path d="M78.2066 43.3852L59.9816 49.4947V55.1843L77.481 49.1621L78.2066 43.3852Z" fill="url(#paint1_linear_303_28)"/>
<path d="M45.5228 55.8759L46.0872 61.5232L71.3289 61.588L70.7642 69.1177L62.4583 70.9999L54.4738 69.3772L53.99 64.7035H46.571L47.5388 73.7261L62.5389 77.2961L77.4577 73.7909L79.3933 55.8759H45.5228Z" fill="url(#paint2_linear_303_28)"/>
<path opacity="0.05" d="M62.5158 55.8759H45.5007L46.0649 61.5232L62.5158 61.5655V55.8759ZM62.5158 70.9819L62.4352 71L54.4517 69.3773L53.9679 64.7037H46.5491L47.5167 73.7263L62.5158 77.2963V70.9819Z" fill="black"/>
<path d="M44.1965 43.3852H80.969L80.2435 49.1622H45.0835L44.1965 43.3852Z" fill="url(#paint3_linear_303_28)"/>
<path opacity="0.05" d="M62.744 43.3852H44.1965L45.0835 49.1622H62.744V43.3852Z" fill="black"/>
<defs>
<linearGradient id="paint0_linear_303_28" x1="52.741" y1="61.8471" x2="52.741" y2="49.8451" gradientUnits="userSpaceOnUse">
<stop offset="0.387" stop-color="#D1D3D4" stop-opacity="0"/>
<stop offset="1" stop-color="#D1D3D4"/>
</linearGradient>
<linearGradient id="paint1_linear_303_28" x1="67.7368" y1="55.8609" x2="67.7368" y2="43.3853" gradientUnits="userSpaceOnUse">
<stop offset="0.387" stop-color="#D1D3D4" stop-opacity="0"/>
<stop offset="1" stop-color="#D1D3D4"/>
</linearGradient>
<linearGradient id="paint2_linear_303_28" x1="45.5228" y1="67.2001" x2="74.3486" y2="67.2001" gradientUnits="userSpaceOnUse">
<stop stop-color="#E8E7E5"/>
<stop offset="1" stop-color="white"/>
</linearGradient>
<linearGradient id="paint3_linear_303_28" x1="44.1965" y1="46.4393" x2="75.4921" y2="46.4393" gradientUnits="userSpaceOnUse">
<stop stop-color="#E8E7E5"/>
<stop offset="1" stop-color="white"/>
</linearGradient>
</defs>
</svg>
