<svg width="65" height="65" viewBox="0 0 65 65" fill="none" xmlns="http://www.w3.org/2000/svg">
<g clip-path="url(#clip0_711_24)">
<path d="M32.499 0.676758C14.5527 0.676758 0 15.2839 0 33.3078C0 47.7221 9.31073 59.9526 22.23 64.2667C23.854 64.5676 24.4463 63.5601 24.4463 62.6941C24.4463 61.9204 24.418 59.8687 24.4023 57.145C15.3599 59.1191 13.4529 52.7711 13.4529 52.7711C11.9768 49.0011 9.84645 47.9999 9.84645 47.9999C6.89419 45.9744 10.0687 46.0132 10.0687 46.0132C13.3292 46.2428 15.0454 49.3775 15.0454 49.3775C17.9473 54.3636 22.6546 52.9221 24.506 52.0865C24.7985 49.9793 25.6404 48.5398 26.5682 47.7252C19.3532 46.9001 11.7671 44.103 11.7671 31.601C11.7671 28.0397 13.0325 25.1262 15.1115 22.8428C14.7749 22.0177 13.6605 18.7017 15.4281 14.2104C15.4281 14.2104 18.1581 13.3339 24.3656 17.5547C26.9582 16.8314 29.7385 16.4697 32.5031 16.455C35.2615 16.4697 38.0439 16.8303 40.6407 17.5547C46.843 13.3339 49.5688 14.2104 49.5688 14.2104C51.3406 18.7017 50.2261 22.0177 49.8906 22.8428C51.9748 25.1262 53.2329 28.0386 53.2329 31.601C53.2329 44.1345 45.6342 46.8918 38.394 47.7011C39.5609 48.7086 40.5998 50.6984 40.5998 53.744C40.5998 58.1074 40.561 61.6237 40.561 62.6941C40.561 63.5685 41.1471 64.5843 42.7952 64.2625C55.6977 59.94 65 47.7179 65 33.3078C65 15.2839 50.4473 0.676758 32.499 0.676758Z" fill="#3D563F"/>
<path d="M32.499 0.676758C14.5527 0.676758 0 15.2839 0 33.3078C0 47.7221 9.31073 59.9526 22.23 64.2667C23.854 64.5676 24.4463 63.5601 24.4463 62.6941C24.4463 61.9204 24.418 59.8687 24.4023 57.145C15.3599 59.1191 13.4529 52.7711 13.4529 52.7711C11.9768 49.0011 9.84645 47.9999 9.84645 47.9999C6.89419 45.9744 10.0687 46.0132 10.0687 46.0132C13.3292 46.2428 15.0454 49.3775 15.0454 49.3775C17.9473 54.3636 22.6546 52.9221 24.506 52.0865C24.7985 49.9793 25.6404 48.5398 26.5682 47.7252C19.3532 46.9001 11.7671 44.103 11.7671 31.601C11.7671 28.0397 13.0325 25.1262 15.1115 22.8428C14.7749 22.0177 13.6605 18.7017 15.4281 14.2104C15.4281 14.2104 18.1581 13.3339 24.3656 17.5547C26.9582 16.8314 29.7385 16.4697 32.5031 16.455C35.2615 16.4697 38.0439 16.8303 40.6407 17.5547C46.843 13.3339 49.5688 14.2104 49.5688 14.2104C51.3406 18.7017 50.2261 22.0177 49.8906 22.8428C51.9748 25.1262 53.2329 28.0386 53.2329 31.601C53.2329 44.1345 45.6342 46.8918 38.394 47.7011C39.5609 48.7086 40.5998 50.6984 40.5998 53.744C40.5998 58.1074 40.561 61.6237 40.561 62.6941C40.561 63.5685 41.1471 64.5843 42.7952 64.2625C55.6977 59.94 65 47.7179 65 33.3078C65 15.2839 50.4473 0.676758 32.499 0.676758Z" fill="#3D563F"/>
<path d="M49.6013 14.3013C51.3217 18.7443 50.224 22.0237 49.8896 22.8425C51.9738 25.1259 53.2319 28.0383 53.2319 31.6007C53.2319 44.1342 45.6331 46.8914 38.393 47.7008C39.5598 48.7083 40.5988 50.6981 40.5988 53.7437C40.5988 58.1071 40.56 61.6234 40.56 62.6938C40.56 63.5681 41.146 64.584 42.7941 64.2622C55.6977 59.9397 65 47.7176 65 33.3075C65 29.4337 64.3248 25.7203 63.0909 22.2732C58.6101 17.5555 53.6229 14.4134 49.6013 14.3013Z" fill="#3D563F"/>
<path d="M25.2892 49.4476C25.654 48.7116 26.0996 48.1392 26.5682 47.7251C22.6137 47.2722 18.5523 46.2164 15.6849 43.303C17.8907 46.9744 21.4825 48.6445 25.2892 49.4476Z" fill="#3D563F"/>
<path d="M1.6921 35.5073C1.6921 17.4835 16.2448 2.87627 34.191 2.87627C44.156 2.87627 53.0694 7.38329 59.0294 14.4725C53.1427 6.12732 43.4577 0.676758 32.499 0.676758C14.5527 0.676758 0 15.2839 0 33.3078C0 41.3437 2.89879 48.696 7.69936 54.3793C3.92411 49.0504 1.6921 42.5441 1.6921 35.5073Z" fill="#3D563F"/>
<path d="M42.2909 55.9446C42.2909 52.9001 41.2519 50.9071 40.0851 49.8996C47.3252 49.0923 54.925 46.333 54.925 33.8005C54.925 30.2381 53.6669 27.3268 51.5806 25.0434C51.9182 24.2183 53.0348 20.9012 51.2588 16.4109C51.2588 16.4109 50.9212 16.3072 50.224 16.347C50.9852 19.7333 50.1695 22.1551 49.8896 22.8428C51.9738 25.1262 53.2319 28.0386 53.2319 31.601C53.2319 44.1345 45.6331 46.8917 38.393 47.7011C39.5598 48.7086 40.5988 50.6984 40.5988 53.744C40.5988 58.1074 40.56 61.6237 40.56 62.6941C40.56 63.4636 41.0181 64.3411 42.2531 64.3201C42.2615 62.8451 42.2909 59.7135 42.2909 55.9446Z" fill="#3D563F"/>
<path d="M15.3935 55.564C16.076 56.9688 18.3698 60.3341 24.4211 59.6254C24.4127 58.8852 24.4065 58.056 24.4023 57.1449C19.7338 58.164 16.9776 56.9625 15.3935 55.564Z" fill="#3D563F"/>
<path d="M16.5603 51.2905C16.3517 50.976 15.9606 50.4423 15.3935 49.9087C15.7615 50.4549 16.1525 50.913 16.5603 51.2905Z" fill="#3D563F"/>
</g>
<defs>
<clipPath id="clip0_711_24">
<rect width="65" height="65" fill="white"/>
</clipPath>
</defs>
</svg>
