<svg width="65" height="66" viewBox="0 0 65 66" fill="none" xmlns="http://www.w3.org/2000/svg">
<g clip-path="url(#clip0_13_23)">
<path d="M32.499 1.17676C14.5527 1.17676 0 15.7839 0 33.8078C0 48.2221 9.31073 60.4526 22.23 64.7667C23.854 65.0676 24.4463 64.0601 24.4463 63.1941C24.4463 62.4204 24.418 60.3687 24.4023 57.645C15.3599 59.6191 13.4529 53.2711 13.4529 53.2711C11.9768 49.5011 9.84645 48.4999 9.84645 48.4999C6.89419 46.4744 10.0687 46.5132 10.0687 46.5132C13.3292 46.7428 15.0454 49.8775 15.0454 49.8775C17.9473 54.8636 22.6546 53.4221 24.506 52.5865C24.7985 50.4793 25.6404 49.0398 26.5682 48.2252C19.3532 47.4001 11.7671 44.603 11.7671 32.101C11.7671 28.5397 13.0325 25.6262 15.1115 23.3428C14.7749 22.5177 13.6605 19.2017 15.4281 14.7104C15.4281 14.7104 18.1581 13.8339 24.3656 18.0547C26.9582 17.3314 29.7385 16.9697 32.5031 16.955C35.2615 16.9697 38.0439 17.3303 40.6407 18.0547C46.843 13.8339 49.5688 14.7104 49.5688 14.7104C51.3406 19.2017 50.2261 22.5177 49.8906 23.3428C51.9748 25.6262 53.2329 28.5386 53.2329 32.101C53.2329 44.6345 45.6342 47.3918 38.394 48.2011C39.5609 49.2086 40.5998 51.1984 40.5998 54.244C40.5998 58.6074 40.561 62.1237 40.561 63.1941C40.561 64.0685 41.1471 65.0843 42.7952 64.7625C55.6977 60.44 65 48.2179 65 33.8078C65 15.7839 50.4473 1.17676 32.499 1.17676Z" fill="white"/>
<path d="M32.499 1.17676C14.5527 1.17676 0 15.7839 0 33.8078C0 48.2221 9.31073 60.4526 22.23 64.7667C23.854 65.0676 24.4463 64.0601 24.4463 63.1941C24.4463 62.4204 24.418 60.3687 24.4023 57.645C15.3599 59.6191 13.4529 53.2711 13.4529 53.2711C11.9768 49.5011 9.84645 48.4999 9.84645 48.4999C6.89419 46.4744 10.0687 46.5132 10.0687 46.5132C13.3292 46.7428 15.0454 49.8775 15.0454 49.8775C17.9473 54.8636 22.6546 53.4221 24.506 52.5865C24.7985 50.4793 25.6404 49.0398 26.5682 48.2252C19.3532 47.4001 11.7671 44.603 11.7671 32.101C11.7671 28.5397 13.0325 25.6262 15.1115 23.3428C14.7749 22.5177 13.6605 19.2017 15.4281 14.7104C15.4281 14.7104 18.1581 13.8339 24.3656 18.0547C26.9582 17.3314 29.7385 16.9697 32.5031 16.955C35.2615 16.9697 38.0439 17.3303 40.6407 18.0547C46.843 13.8339 49.5688 14.7104 49.5688 14.7104C51.3406 19.2017 50.2261 22.5177 49.8906 23.3428C51.9748 25.6262 53.2329 28.5386 53.2329 32.101C53.2329 44.6345 45.6342 47.3918 38.394 48.2011C39.5609 49.2086 40.5998 51.1984 40.5998 54.244C40.5998 58.6074 40.561 62.1237 40.561 63.1941C40.561 64.0685 41.1471 65.0843 42.7952 64.7625C55.6977 60.44 65 48.2179 65 33.8078C65 15.7839 50.4473 1.17676 32.499 1.17676Z" fill="white"/>
<path d="M49.6013 14.8013C51.3217 19.2443 50.224 22.5237 49.8896 23.3425C51.9738 25.6259 53.2318 28.5383 53.2318 32.1007C53.2318 44.6342 45.6331 47.3914 38.393 48.2008C39.5598 49.2083 40.5988 51.1981 40.5988 54.2437C40.5988 58.6071 40.56 62.1234 40.56 63.1938C40.56 64.0681 41.146 65.084 42.7941 64.7622C55.6977 60.4397 65 48.2176 65 33.8075C65 29.9337 64.3248 26.2203 63.0909 22.7732C58.6101 18.0555 53.6229 14.9134 49.6013 14.8013Z" fill="white"/>
<path d="M25.2892 49.9476C25.654 49.2116 26.0996 48.6392 26.5682 48.2251C22.6137 47.7722 18.5523 46.7164 15.6849 43.803C17.8907 47.4744 21.4825 49.1445 25.2892 49.9476Z" fill="white"/>
<path d="M1.6921 36.0073C1.6921 17.9835 16.2448 3.37627 34.1911 3.37627C44.156 3.37627 53.0694 7.88329 59.0294 14.9725C53.1427 6.62732 43.4577 1.17676 32.499 1.17676C14.5527 1.17676 0 15.7839 0 33.8078C0 41.8437 2.89879 49.196 7.69936 54.8793C3.92411 49.5504 1.6921 43.0441 1.6921 36.0073Z" fill="white"/>
<path d="M42.2909 56.4446C42.2909 53.4001 41.2519 51.4071 40.0851 50.3996C47.3252 49.5923 54.925 46.833 54.925 34.3005C54.925 30.7381 53.6669 27.8268 51.5806 25.5434C51.9182 24.7183 53.0348 21.4012 51.2588 16.9109C51.2588 16.9109 50.9212 16.8072 50.224 16.847C50.9852 20.2333 50.1695 22.6551 49.8896 23.3428C51.9738 25.6262 53.2319 28.5386 53.2319 32.101C53.2319 44.6345 45.6331 47.3918 38.393 48.2011C39.5598 49.2086 40.5988 51.1984 40.5988 54.244C40.5988 58.6074 40.56 62.1237 40.56 63.1941C40.56 63.9636 41.0181 64.8411 42.2531 64.8201C42.2615 63.3451 42.2909 60.2135 42.2909 56.4446Z" fill="white"/>
<path d="M15.3935 56.064C16.076 57.4688 18.3698 60.8341 24.4211 60.1254C24.4127 59.3852 24.4065 58.556 24.4023 57.6449C19.7338 58.664 16.9776 57.4625 15.3935 56.064Z" fill="white"/>
<path d="M16.5603 51.7905C16.3517 51.476 15.9606 50.9423 15.3935 50.4087C15.7615 50.9549 16.1525 51.413 16.5603 51.7905Z" fill="white"/>
</g>
<defs>
<clipPath id="clip0_13_23">
<rect width="65" height="65" fill="white" transform="translate(0 0.5)"/>
</clipPath>
</defs>
</svg>
