<svg width="115" height="145" viewBox="0 0 115 145" fill="none" xmlns="http://www.w3.org/2000/svg">
<path d="M57.25 1.87639C57.4047 1.78707 57.5953 1.78707 57.75 1.87639L105.546 29.4717C105.701 29.561 105.796 29.7261 105.796 29.9047V85.0953C105.796 85.2739 105.701 85.439 105.546 85.5283L57.75 113.124C57.5953 113.213 57.4047 113.213 57.25 113.124L9.45354 85.5283C9.29884 85.439 9.20354 85.2739 9.20354 85.0953V29.9047C9.20354 29.7261 9.29884 29.561 9.45354 29.4717L57.25 1.87639Z" stroke="#29803C" stroke-width="3"/>
<path d="M81.1736 37.1339L76.8602 85.4555L57.471 90.8307L38.1353 85.4629L33.8264 37.1339H81.1736Z" fill="#E44D26"/>
<path d="M57.5 86.722L73.1674 82.3785L76.8534 41.0854H57.5V86.722Z" fill="#F16529"/>
<path d="M49.1148 52.9403H57.5V47.0129H42.637L42.7788 48.6031L44.2357 64.9374H57.5V59.01H49.6566L49.1148 52.9403ZM50.4507 67.9012H44.5005L45.3309 77.2081L57.4727 80.5785L57.5 80.5711V74.4041L57.474 74.4109L50.8728 72.6285L50.4507 67.9012Z" fill="#EBEBEB"/>
<path d="M38.2314 24H41.2437V26.976H43.9992V24H47.0116V33.0121H43.9994V29.9944H41.2438V33.0121H38.2316V24H38.2314ZM50.9726 26.9886H48.3212V24H56.6384V26.9886H53.9854V33.0121H50.9731V26.9886H50.973H50.9726ZM57.9584 24H61.0992L63.0313 27.1666L64.9615 24H68.1036V33.0121H65.1036V28.5452L63.0313 31.7495H62.9793L60.9057 28.5452V33.0121H57.9584V24ZM69.6027 24H72.6158V30.0333H76.8518V33.0121H69.6025V24H69.6027Z" fill="black"/>
<path d="M57.4796 64.9374H64.7785L64.0903 72.6248L57.4794 74.4091V80.5757L69.6309 77.208L69.72 76.2066L71.113 60.6017L71.2576 59.01H57.4796V64.9374ZM57.4796 52.9258V52.9403H71.797L71.9157 51.6081L72.186 48.6031L72.3276 47.0129H57.4796V52.926V52.9258Z" fill="white"/>
<path d="M32.2929 125.208V140.608H30.3789V133.634H22.5469V140.608H20.6549V125.208H22.5469V132.094H30.3789V125.208H32.2929ZM45.8825 126.924H41.3505V140.608H39.4585V126.924H34.9265V125.208H45.8825V126.924ZM48.3912 125.208H51.1852L55.7612 137H55.8272L60.4032 125.208H63.1972V140.608H61.3272V128.134H61.2392L56.4652 140.608H55.1012L50.3492 128.134H50.2612V140.608H48.3912V125.208ZM75.7389 138.892V140.608H66.6529V125.208H68.5669L68.5449 138.892H75.7389ZM88.5818 140.696C87.5991 140.696 86.7338 140.506 85.9858 140.124C85.2378 139.743 84.6438 139.252 84.2038 138.65C83.7638 138.034 83.4851 137.367 83.3678 136.648H85.2598C85.4944 137.44 85.9124 138.027 86.5138 138.408C87.1151 138.79 87.7971 138.98 88.5598 138.98C89.6304 138.98 90.4591 138.643 91.0458 137.968C91.6324 137.279 91.9258 136.377 91.9258 135.262C91.9258 134.074 91.6031 133.18 90.9578 132.578C90.3124 131.977 89.5058 131.676 88.5378 131.676C87.5551 131.676 86.8511 131.896 86.4258 132.336C86.0151 132.776 85.7291 133.202 85.5678 133.612L83.5878 133.48L84.0058 125.208H92.7618V126.968H85.5898L85.3258 131.918H85.4138C86.1618 130.789 87.3351 130.224 88.9338 130.224C89.8871 130.224 90.7304 130.43 91.4638 130.84C92.2118 131.236 92.7911 131.816 93.2018 132.578C93.6124 133.326 93.8178 134.228 93.8178 135.284C93.8178 136.311 93.6051 137.235 93.1798 138.056C92.7691 138.878 92.1678 139.523 91.3758 139.992C90.5838 140.462 89.6524 140.696 88.5818 140.696Z" fill="black"/>
</svg>
