<svg width="65" height="65" viewBox="0 0 65 65" fill="none" xmlns="http://www.w3.org/2000/svg">
<g clip-path="url(#clip0_16_0)">
<path d="M9.52148 65H55.4785C60.7287 65 65 60.9916 65 56.0645V12.9355C65 8.00843 60.7287 4 55.4785 4H9.52148C4.27128 4 0 8.00843 0 12.9355V56.0645C0 60.9916 4.27128 65 9.52148 65ZM3.80859 12.9355C3.80859 9.97937 6.37146 7.57422 9.52148 7.57422H55.4785C58.6285 7.57422 61.1914 9.97937 61.1914 12.9355V56.0645C61.1914 59.0206 58.6285 61.4258 55.4785 61.4258H9.52148C6.37146 61.4258 3.80859 59.0206 3.80859 56.0645V12.9355Z" fill="#FFF4F4"/>
<path d="M32.5 50.584C41.9501 50.584 49.6387 43.3685 49.6387 34.5C49.6387 25.6315 41.9501 18.416 32.5 18.416C23.0499 18.416 15.3613 25.6315 15.3613 34.5C15.3613 43.3685 23.0499 50.584 32.5 50.584ZM32.5 21.9902C39.8504 21.9902 45.8301 27.6019 45.8301 34.5C45.8301 41.3981 39.8504 47.0098 32.5 47.0098C25.1496 47.0098 19.1699 41.3981 19.1699 34.5C19.1699 27.6019 25.1496 21.9902 32.5 21.9902Z" fill="#FFF4F4"/>
<path d="M51.543 21.9902C54.693 21.9902 57.2559 19.5851 57.2559 16.6289C57.2559 13.6727 54.693 11.2676 51.543 11.2676C48.3929 11.2676 45.8301 13.6727 45.8301 16.6289C45.8301 19.5851 48.3929 21.9902 51.543 21.9902ZM51.543 14.8418C52.5928 14.8418 53.4473 15.6437 53.4473 16.6289C53.4473 17.6141 52.5928 18.416 51.543 18.416C50.4931 18.416 49.6387 17.6141 49.6387 16.6289C49.6387 15.6437 50.4931 14.8418 51.543 14.8418Z" fill="#FFF4F4"/>
</g>
<defs>
<clipPath id="clip0_16_0">
<rect width="65" height="61" fill="white" transform="translate(0 4)"/>
</clipPath>
</defs>
</svg>
