<svg width="35" height="36" viewBox="0 0 35 36" fill="none" xmlns="http://www.w3.org/2000/svg">
<g clip-path="url(#clip0_16_28)">
<path d="M23.4596 26.8855H22.3009C21.0326 28.0384 19.7644 29.0934 18.4961 30.0388V33.0596C20.5195 32.4889 22.3009 30.1598 23.4596 26.8855Z" fill="white"/>
<path d="M22.7909 4.48364C23.9092 5.86146 24.8373 7.67149 25.5118 9.79872H29.6336C27.9445 7.41209 25.5695 5.54436 22.7909 4.48364Z" fill="white"/>
<path d="M18.4904 27.5888C18.7729 27.364 19.0611 27.1276 19.3436 26.8855H18.4904V27.5888Z" fill="white"/>
<path d="M18.4904 3.65356V9.79296H23.4423C22.2894 6.5417 20.508 4.23007 18.4904 3.65356Z" fill="white"/>
<path d="M18.4904 17.3679H24.8086C24.7394 15.3676 24.4627 13.4594 24.0304 11.7357H18.4905V17.3679H18.4904Z" fill="white"/>
<path d="M25.5291 26.8855C24.8489 29.0242 23.9092 30.8459 22.7851 32.2352C25.5752 31.1745 27.9618 29.2951 29.6567 26.8855H25.5291Z" fill="white"/>
<path d="M26.0422 11.7473C26.44 13.4825 26.6878 15.3791 26.7455 17.3795H28.2328C29.3974 15.7539 30.3889 14.1397 31.1671 12.5775C31.0518 12.295 30.925 12.0183 30.7866 11.7532H26.0422V11.7473Z" fill="white"/>
<path d="M32.0087 15.1542C31.5879 15.8921 31.1325 16.6299 30.6425 17.3678H32.3258C32.2796 16.6184 32.1701 15.8805 32.0087 15.1542Z" fill="white"/>
<path d="M26.7702 19.3105H26.757C26.757 19.3172 26.757 19.3237 26.757 19.3237C26.757 19.3237 26.757 19.3171 26.7702 19.3105Z" fill="white"/>
<path d="M22.8486 23.6802C23.4539 23.0749 24.0419 22.4523 24.6068 21.8355C24.7106 21.0169 24.7797 20.1753 24.8143 19.3163H18.4904V24.9484H21.5342C21.9781 24.5333 22.4105 24.1125 22.8486 23.6802Z" fill="white"/>
<path d="M16.5477 11.7473H11.0078C10.5755 13.4709 10.2987 15.3734 10.2296 17.3795H16.5478V11.7473H16.5477Z" fill="white"/>
<path d="M5.40443 9.80458H9.52618C10.2064 7.68315 11.1403 5.86723 12.2471 4.4895C9.48008 5.54442 7.09934 7.41215 5.40443 9.80458Z" fill="white"/>
<path d="M2.71835 17.3679H8.29283C8.35623 15.3676 8.59834 13.4767 8.99614 11.7357H4.24026C3.38135 13.4594 2.85095 15.3618 2.71835 17.3679Z" fill="white"/>
<path d="M8.99017 24.9426C8.59237 23.2074 8.35027 21.3108 8.29266 19.3104H2.71238C2.84498 21.3223 3.37529 23.2247 4.22271 24.9426H8.99017Z" fill="white"/>
<path d="M11.6015 9.80455H16.5534V3.65356C14.5358 4.23007 12.7602 6.5417 11.6015 9.80455Z" fill="white"/>
<path d="M16.5477 19.3105H10.2295C10.2987 21.3109 10.5696 23.2133 11.002 24.9427H16.5477V19.3105Z" fill="white"/>
<path d="M26.4572 22.7004C26.3477 23.4671 26.2151 24.2165 26.0479 24.9371H30.8096C31.6628 23.2192 32.1931 21.3169 32.3199 19.3049H29.2531C28.4115 20.4406 27.4833 21.5705 26.4572 22.7004Z" fill="white"/>
<path d="M16.5477 31.4337C16.0635 31.7565 15.5965 32.0563 15.1238 32.3445C15.5792 32.6846 16.0634 32.921 16.5477 33.0593V31.4337Z" fill="white"/>
<path d="M16.5477 26.8855H11.5842C12.1491 28.4938 12.8755 29.8716 13.6941 30.9209C14.6165 30.3789 15.5677 29.7563 16.5477 29.0588V26.8855Z" fill="white"/>
<path d="M5.38721 26.8855C6.97254 29.1337 9.16308 30.9093 11.7169 32.0046C11.8091 31.9642 11.8898 31.9124 11.9763 31.872C10.979 30.5346 10.1374 28.8455 9.50898 26.8855H5.38721Z" fill="white"/>
<path d="M33.5944 2.27538C31.5941 0.27505 27.922 0.396058 23.2352 2.56938C21.4482 1.92377 19.5285 1.56057 17.5166 1.56057C8.26421 1.56637 0.735505 9.10086 0.735505 18.3532C0.735505 20.3593 1.09291 22.2905 1.74432 24.0718C-0.434713 28.7642 -0.613416 32.5056 1.44452 34.4367C4.18855 37.0078 8.85792 35.5666 11.7807 34.1312C13.5735 34.7884 15.5104 35.1458 17.5223 35.1458C26.7747 35.1458 34.3092 27.6171 34.3092 18.3589C34.3092 16.3528 33.9576 14.4331 33.3118 12.646C35.5256 7.79805 35.5026 4.18351 33.5944 2.27538ZM32.2224 3.65319C33.3753 4.80611 33.3523 7.17544 32.2109 10.2423C30.6833 7.48674 28.4005 5.20391 25.6449 3.67629C28.6829 2.54058 31.081 2.51178 32.2224 3.65319ZM28.239 17.3675H26.7517C26.6883 15.3671 26.4461 13.4763 26.0483 11.7353H30.8042C30.9426 12.0062 31.0636 12.2772 31.1847 12.5596C30.4008 14.1277 29.4035 15.7476 28.239 17.3675ZM32.0091 15.1538C32.1647 15.8687 32.2685 16.6066 32.3262 17.3675H30.6429C31.1444 16.6296 31.5883 15.8917 32.0091 15.1538ZM26.769 19.3102C26.7632 19.316 26.7632 19.3217 26.7575 19.3217C26.7575 19.3159 26.7575 19.3102 26.7575 19.3102H26.769ZM25.518 9.80417C24.8378 7.68275 23.9039 5.86683 22.7971 4.4891C25.5757 5.54982 27.9508 7.41755 29.6398 9.80417H25.518ZM18.4908 24.9423V19.3101H24.809C24.7802 20.169 24.7052 21.0107 24.6015 21.8293C24.0366 22.4519 23.4486 23.0688 22.8433 23.6741C22.411 24.1064 21.9728 24.5273 21.5405 24.9366H18.4909V24.9423H18.4908ZM19.3556 26.885C19.0731 27.1271 18.7848 27.3577 18.5023 27.5883V26.885H19.3556ZM24.0307 11.7469C24.463 13.4705 24.7398 15.3729 24.8089 17.3791H18.4908V11.7469H24.0307ZM18.4908 9.80417V3.65319C20.5028 4.2239 22.2898 6.54133 23.4427 9.79258H18.4908V9.80417ZM18.4908 30.0383C19.7591 29.0871 21.0273 28.0322 22.2956 26.885H23.4543C22.2956 30.1594 20.5143 32.4826 18.4908 33.059V30.0383ZM22.7856 32.2289C23.9097 30.8454 24.8436 29.0179 25.5296 26.8792H29.663C27.9681 29.2889 25.5756 31.1682 22.7856 32.2289ZM30.8216 24.9423H26.0599C26.2271 24.2275 26.3539 23.4723 26.4692 22.7056C27.4954 21.5699 28.4235 20.44 29.2709 19.3159H32.3377C32.2051 21.322 31.6747 23.2245 30.8216 24.9423ZM13.7004 30.9204C12.8761 29.8654 12.1555 28.4876 11.5905 26.885H16.5539V29.0583C15.5796 29.7558 14.6285 30.3785 13.7004 30.9204ZM16.5481 31.4334V33.059C16.0581 32.9206 15.5854 32.6728 15.1242 32.3442C15.5969 32.0502 16.0754 31.7505 16.5481 31.4334ZM11.9883 31.8715C11.896 31.9176 11.8096 31.9637 11.7288 32.0041C9.16931 30.9146 6.97869 29.1274 5.39346 26.885H9.52681C10.1492 28.845 10.9851 30.5341 11.9883 31.8715ZM11.0024 24.9423C10.5701 23.2187 10.2991 21.3162 10.2299 19.3101H16.5481V24.9423H11.0024ZM10.2357 17.3675C10.3049 15.3671 10.5816 13.459 11.0139 11.7353H16.5538V17.3675H10.2357ZM9.52672 9.80417H5.40487C7.0939 7.41755 9.46902 5.54402 12.2476 4.4891C11.1408 5.86683 10.2069 7.67695 9.52672 9.80417ZM8.99632 11.7469C8.59852 13.4821 8.35071 15.3786 8.29301 17.3791H2.71854C2.85114 15.3671 3.38724 13.4648 4.24045 11.7469H8.99632ZM8.29301 19.3102C8.35641 21.3105 8.59852 23.2014 8.99052 24.9424H4.22895C3.37574 23.2245 2.84543 21.3221 2.71862 19.3102H8.29301ZM16.5481 9.80417H11.5962C12.7608 6.54713 14.5363 4.2297 16.5481 3.65899V9.80417ZM2.82233 33.0591C1.68092 31.9177 1.70401 29.5195 2.83384 26.4758C4.35575 29.2255 6.63279 31.4969 9.37102 33.0303C6.31578 34.1601 3.94065 34.1832 2.82233 33.0591Z" fill="#29803C"/>
<path d="M26.7702 19.3105H26.757C26.757 19.3172 26.757 19.3237 26.757 19.3237C26.757 19.3237 26.757 19.3171 26.7702 19.3105Z" fill="#C2C2C2"/>
<path d="M24.6933 7.63708C24.9988 8.31159 25.2813 9.0379 25.5176 9.79311H27.1548C26.4284 8.98021 25.6041 8.25389 24.6933 7.63708Z" fill="#C2C2C2"/>
<path d="M26.0422 11.7473C26.44 13.4825 26.6878 15.3791 26.7455 17.3795H28.2328C28.8439 16.5263 29.403 15.6789 29.9162 14.8372C29.6048 13.7419 29.1494 12.71 28.5787 11.7473H26.0422Z" fill="#C2C2C2"/>
<path d="M23.4596 26.8855H22.3009C21.0326 28.0384 19.7644 29.0934 18.4961 30.0388V31.2091C19.5683 31.1284 20.6117 30.9209 21.5976 30.5865C22.3182 29.5834 22.9408 28.3324 23.4596 26.8855Z" fill="#C2C2C2"/>
<path d="M16.5477 11.7473H11.0078C10.5755 13.4709 10.2987 15.3734 10.2296 17.3795H16.5478V11.7473H16.5477Z" fill="#C2C2C2"/>
<path d="M11.6015 9.80459H16.5534V5.50403C15.4812 5.58473 14.4378 5.79224 13.4519 6.12664C12.7372 7.12395 12.1031 8.36916 11.6015 9.80459Z" fill="#C2C2C2"/>
<path d="M10.3621 29.0761C10.0508 28.3843 9.76829 27.658 9.52048 26.8855H7.86026C8.59817 27.7156 9.43399 28.4535 10.3621 29.0761Z" fill="#C2C2C2"/>
<path d="M16.5477 29.0644V26.8911H11.5842C12.0915 28.338 12.7256 29.5948 13.452 30.5979C13.6249 30.6555 13.7979 30.7074 13.9708 30.7535C14.8125 30.2462 15.6715 29.687 16.5477 29.0644Z" fill="#C2C2C2"/>
<path d="M11.002 24.9426H16.5477V19.3104H10.2295C10.2987 21.3108 10.5754 23.219 11.002 24.9426Z" fill="#C2C2C2"/>
<path d="M8.99018 24.9426C8.59238 23.2074 8.35027 21.3108 8.29266 19.3104H4.66081C4.81071 21.3568 5.43903 23.265 6.43055 24.9426H8.99018Z" fill="#C2C2C2"/>
<path d="M7.88906 9.80458H9.52628C9.76838 9.03787 10.0509 8.32306 10.3506 7.64856C9.44558 8.25386 8.60967 8.98018 7.88906 9.80458Z" fill="#C2C2C2"/>
<path d="M18.4904 9.80462H23.4423C22.935 8.3692 22.3067 7.12398 21.586 6.12676C20.6002 5.79815 19.5626 5.58485 18.4846 5.50415V9.80462H18.4904Z" fill="#C2C2C2"/>
<path d="M8.29257 17.3679C8.35598 15.3676 8.59808 13.4767 8.99588 11.7357H6.45364C5.45633 13.4017 4.82222 15.3214 4.66081 17.3679H8.29257Z" fill="#C2C2C2"/>
<path d="M27.1893 26.8855H25.5291C25.2812 27.658 24.9988 28.3901 24.6875 29.0761C25.6098 28.4535 26.4515 27.7156 27.1893 26.8855Z" fill="#C2C2C2"/>
<path d="M18.4904 26.8855V27.5888C18.7729 27.364 19.0611 27.1276 19.3436 26.8855H18.4904Z" fill="#C2C2C2"/>
<path d="M29.259 19.3107C28.4115 20.4348 27.4834 21.5648 26.4573 22.7004C26.3478 23.4671 26.2152 24.2165 26.048 24.9371H28.596C29.5876 23.2711 30.216 21.3515 30.3658 19.3049L29.259 19.3107Z" fill="#C2C2C2"/>
<path d="M22.8486 23.6802C23.4539 23.0749 24.0419 22.4523 24.6068 21.8355C24.7106 21.0169 24.7797 20.1753 24.8143 19.3163H18.4904V24.9484H21.5342C21.9781 24.5333 22.4105 24.1125 22.8486 23.6802Z" fill="#C2C2C2"/>
<path d="M24.0303 11.7473H18.4904V17.3737H24.8086C24.7394 15.3676 24.4627 13.4709 24.0303 11.7473Z" fill="#C2C2C2"/>
</g>
<defs>
<clipPath id="clip0_16_28">
<rect width="35" height="35" fill="white" transform="translate(0 0.85376)"/>
</clipPath>
</defs>
</svg>
