<svg width="404" height="284" viewBox="0 0 404 284" fill="none" xmlns="http://www.w3.org/2000/svg">
<g clip-path="url(#clip0_669_26)">
<rect x="1" y="1" width="402" height="282" rx="9" fill="#D9D9D9" stroke="#578965" stroke-width="2"/>
<mask id="mask0_669_26" style="mask-type:alpha" maskUnits="userSpaceOnUse" x="0" y="0" width="404" height="284">
<rect x="1" y="1" width="402" height="282" rx="9" fill="#D9D9D9" stroke="#578965" stroke-width="2"/>
</mask>
<g mask="url(#mask0_669_26)">
<rect width="497.542" height="64.8291" transform="matrix(0.828978 -0.559282 0.556028 0.831164 -22.22 254.586)" fill="#3D563F"/>
<path d="M80.6934 213.804L77.773 215.775C77.0369 215.049 76.2398 214.513 75.3815 214.166C74.5312 213.815 73.655 213.629 72.7531 213.609C71.8538 213.576 70.9614 213.698 70.0761 213.976C69.1907 214.253 68.3476 214.662 67.5469 215.202C66.0867 216.187 65.0113 217.45 64.3208 218.989C63.6381 220.523 63.4292 222.246 63.694 224.158C63.9666 226.065 64.8031 228.065 66.2036 230.158C67.6041 232.252 69.1315 233.786 70.7858 234.761C72.448 235.73 74.1153 236.187 75.7878 236.133C77.4681 236.073 79.0383 235.55 80.4985 234.565C81.2993 234.025 81.9949 233.396 82.5855 232.678C83.176 231.96 83.6287 231.18 83.9436 230.34C84.2612 229.486 84.4186 228.597 84.4161 227.673C84.4162 226.737 84.2235 225.793 83.8381 224.842L86.7585 222.872C87.3653 224.256 87.7047 225.632 87.7766 227C87.8485 228.368 87.6817 229.686 87.2762 230.953C86.8654 232.212 86.2407 233.382 85.4021 234.462C84.5713 235.536 83.5476 236.484 82.3307 237.305C80.2739 238.692 78.1078 239.422 75.8324 239.495C73.5569 239.568 71.3387 238.985 69.1777 237.747C67.0167 236.509 65.0832 234.615 63.3774 232.065C61.6716 229.515 60.6567 227.001 60.3327 224.524C60.0087 222.046 60.3105 219.764 61.2381 217.676C62.1657 215.588 63.6579 213.851 65.7147 212.463C66.9315 211.642 68.1922 211.049 69.4968 210.683C70.8093 210.311 72.1263 210.177 73.4479 210.279C74.7642 210.374 76.0393 210.713 77.2731 211.297C78.5016 211.873 79.6417 212.709 80.6934 213.804ZM108.794 201.428C110.499 203.979 111.514 206.492 111.838 208.97C112.162 211.447 111.861 213.729 110.933 215.817C110.005 217.905 108.513 219.643 106.456 221.03C104.4 222.418 102.233 223.148 99.958 223.221C97.6826 223.293 95.4643 222.711 93.3033 221.473C91.1423 220.235 89.2089 218.341 87.503 215.79C85.7972 213.24 84.7823 210.726 84.4583 208.249C84.1343 205.772 84.4361 203.489 85.3637 201.402C86.2913 199.314 87.7835 197.576 89.8403 196.189C91.8971 194.801 94.0633 194.071 96.3387 193.998C98.6141 193.925 100.832 194.508 102.993 195.746C105.154 196.984 107.088 198.878 108.794 201.428ZM105.967 203.335C104.567 201.241 103.036 199.71 101.373 198.741C99.7192 197.766 98.0518 197.309 96.3715 197.369C94.699 197.423 93.1327 197.943 91.6725 198.928C90.2123 199.913 89.1369 201.175 88.4464 202.715C87.7637 204.249 87.5548 205.972 87.8196 207.884C88.0922 209.79 88.9288 211.79 90.3292 213.884C91.7297 215.978 93.2571 217.512 94.9114 218.486C96.5736 219.455 98.2409 219.913 99.9134 219.858C101.594 219.798 103.164 219.276 104.624 218.291C106.084 217.306 107.156 216.046 107.838 214.512C108.529 212.973 108.738 211.25 108.465 209.343C108.201 207.431 107.368 205.429 105.967 203.335ZM105.617 186.026L109.103 183.674L130.724 198.217L131.007 198.027L125.777 172.426L129.263 170.075L145.437 194.255L142.705 196.098L130.416 177.727L130.181 177.886L134.933 201.341L132.295 203.12L112.47 189.833L112.235 189.992L124.523 208.363L121.791 210.206L105.617 186.026ZM138.039 164.155L154.213 188.336L151.292 190.306L135.118 166.125L138.039 164.155ZM163.018 147.305L179.192 171.485L176.366 173.392L150.525 163.271L150.29 163.43L162.989 182.416L160.068 184.386L143.894 160.205L146.721 158.299L172.64 168.435L172.875 168.276L160.145 149.243L163.018 147.305ZM190.402 139.798C189.612 139.178 188.794 138.696 187.948 138.352C187.106 137.995 186.244 137.789 185.363 137.732C184.49 137.67 183.609 137.767 182.721 138.023C181.833 138.28 180.953 138.702 180.082 139.289C178.653 140.253 177.601 141.5 176.927 143.029C176.252 144.558 176.051 146.275 176.323 148.182C176.596 150.088 177.432 152.088 178.833 154.182C180.233 156.276 181.765 157.807 183.427 158.776C185.089 159.745 186.764 160.197 188.452 160.132C190.141 160.067 191.731 159.532 193.222 158.526C194.604 157.594 195.623 156.478 196.28 155.178C196.94 153.864 197.201 152.466 197.063 150.983C196.928 149.486 196.366 147.998 195.376 146.518L196.397 146.103L189.143 150.997L187.406 148.399L196.591 142.203L198.328 144.801C199.66 146.792 200.395 148.81 200.531 150.854C200.676 152.892 200.277 154.817 199.336 156.629C198.397 158.427 196.97 159.973 195.054 161.265C192.919 162.705 190.706 163.467 188.415 163.551C186.131 163.629 183.917 163.043 181.772 161.795C179.634 160.541 177.713 158.639 176.007 156.089C174.727 154.176 173.832 152.284 173.321 150.413C172.813 148.528 172.669 146.729 172.889 145.015C173.11 143.301 173.672 141.723 174.575 140.28C175.478 138.837 176.703 137.594 178.25 136.55C179.522 135.692 180.836 135.086 182.193 134.73C183.553 134.361 184.899 134.236 186.231 134.354C187.565 134.458 188.847 134.799 190.076 135.375C191.299 135.944 192.413 136.74 193.417 137.765L190.402 139.798ZM220.064 117.596C219.123 116.495 217.928 115.953 216.481 115.969C215.034 115.986 213.581 116.487 212.12 117.472C211.053 118.192 210.234 118.995 209.665 119.882C209.104 120.763 208.802 121.658 208.76 122.566C208.726 123.468 208.967 124.305 209.483 125.077C209.915 125.722 210.439 126.174 211.056 126.432C211.675 126.676 212.331 126.788 213.023 126.767C213.71 126.737 214.386 126.641 215.051 126.478C215.711 126.307 216.305 126.129 216.831 125.945L219.723 124.954C220.461 124.696 221.313 124.453 222.277 124.225C223.249 123.992 224.257 123.889 225.3 123.916C226.346 123.93 227.361 124.171 228.346 124.637C229.33 125.104 230.202 125.904 230.96 127.038C231.834 128.344 232.282 129.755 232.304 131.271C232.335 132.781 231.906 134.287 231.019 135.787C230.14 137.283 228.774 138.656 226.921 139.906C225.194 141.071 223.511 141.8 221.874 142.094C220.244 142.382 218.733 142.27 217.342 141.758C215.959 141.24 214.779 140.352 213.8 139.093L216.814 137.059C217.504 137.92 218.315 138.469 219.249 138.707C220.186 138.932 221.164 138.912 222.183 138.647C223.204 138.369 224.194 137.907 225.152 137.261C226.267 136.509 227.146 135.653 227.791 134.692C228.431 133.724 228.791 132.738 228.873 131.735C228.949 130.725 228.692 129.779 228.102 128.897C227.565 128.094 226.904 127.592 226.12 127.39C225.335 127.188 224.473 127.176 223.532 127.353C222.591 127.531 221.618 127.788 220.612 128.124L217.076 129.275C214.829 130.003 212.819 130.234 211.046 129.968C209.273 129.702 207.841 128.754 206.751 127.125C205.846 125.771 205.421 124.344 205.477 122.844C205.536 121.331 205.999 119.876 206.865 118.481C207.735 117.072 208.938 115.849 210.477 114.811C212.032 113.762 213.6 113.11 215.183 112.853C216.76 112.588 218.224 112.698 219.573 113.182C220.929 113.66 222.035 114.496 222.891 115.689L220.064 117.596ZM252.414 104.547C254.12 107.097 255.135 109.611 255.459 112.088C255.783 114.565 255.481 116.848 254.553 118.935C253.626 121.023 252.133 122.761 250.077 124.148C248.02 125.536 245.854 126.266 243.578 126.339C241.303 126.412 239.085 125.829 236.924 124.591C234.763 123.353 232.829 121.459 231.123 118.909C229.417 116.358 228.403 113.845 228.079 111.367C227.755 108.89 228.056 106.608 228.984 104.52C229.912 102.432 231.404 100.694 233.461 99.3069C235.517 97.9194 237.684 97.1893 239.959 97.1164C242.234 97.0436 244.453 97.6262 246.614 98.8642C248.775 100.102 250.708 101.996 252.414 104.547ZM249.588 106.453C248.187 104.359 246.656 102.828 244.994 101.859C243.339 100.884 241.672 100.427 239.992 100.487C238.319 100.541 236.753 101.061 235.293 102.046C233.833 103.031 232.757 104.293 232.067 105.833C231.384 107.367 231.175 109.09 231.44 111.002C231.712 112.908 232.549 114.908 233.949 117.002C235.35 119.096 236.877 120.63 238.532 121.604C240.194 122.574 241.861 123.031 243.534 122.976C245.214 122.917 246.784 122.394 248.244 121.409C249.705 120.424 250.776 119.165 251.459 117.63C252.149 116.091 252.358 114.368 252.086 112.461C251.821 110.55 250.988 108.547 249.588 106.453ZM277.673 87.5077C279.379 90.058 280.394 92.5717 280.718 95.0489C281.042 97.5261 280.74 99.8086 279.812 101.896C278.885 103.984 277.392 105.722 275.336 107.109C273.279 108.497 271.113 109.227 268.837 109.3C266.562 109.373 264.344 108.79 262.183 107.552C260.022 106.314 258.088 104.42 256.382 101.87C254.676 99.3194 253.662 96.8057 253.338 94.3285C253.014 91.8513 253.315 89.5687 254.243 87.4809C255.171 85.393 256.663 83.6554 258.72 82.2679C260.776 80.8804 262.943 80.1503 265.218 80.0775C267.493 80.0047 269.712 80.5873 271.873 81.8253C274.034 83.0633 275.967 84.9574 277.673 87.5077ZM274.847 89.4142C273.446 87.3204 271.915 85.789 270.253 84.8199C268.598 83.8455 266.931 83.3881 265.251 83.4479C263.578 83.5024 262.012 84.0221 260.552 85.0071C259.092 85.9921 258.016 87.2544 257.326 88.7939C256.643 90.3282 256.434 92.0512 256.699 93.9629C256.971 95.8694 257.808 97.8695 259.208 99.9632C260.609 102.057 262.136 103.591 263.791 104.565C265.453 105.535 267.12 105.992 268.793 105.937C270.473 105.878 272.043 105.355 273.503 104.37C274.964 103.385 276.035 102.126 276.718 100.591C277.408 99.0518 277.617 97.3288 277.345 95.4224C277.08 93.5106 276.247 91.5079 274.847 89.4142ZM293.62 59.2047L309.794 83.3851L306.968 85.2915L281.127 75.1712L280.892 75.33L293.591 94.3154L290.67 96.2854L274.496 72.1051L277.323 70.1986L303.242 80.3344L303.478 80.1755L290.747 61.1429L293.62 59.2047ZM302.761 53.0385L314.151 70.577L311.419 72.4199L299.558 55.1991L302.761 53.0385ZM317.46 78.4881C316.879 78.88 316.241 79.0077 315.546 78.8712C314.851 78.7347 314.308 78.3752 313.919 77.7927C313.529 77.2102 313.403 76.5701 313.54 75.8722C313.677 75.1744 314.036 74.6295 314.617 74.2376C315.198 73.8458 315.836 73.7181 316.531 73.8546C317.226 73.9911 317.768 74.3506 318.158 74.933C318.416 75.3187 318.555 75.7391 318.574 76.1942C318.602 76.644 318.52 77.0759 318.33 77.4898C318.143 77.8905 317.852 78.2233 317.46 78.4881Z" fill="white"/>
</g>
</g>
<defs>
<clipPath id="clip0_669_26">
<rect width="404" height="284" fill="white"/>
</clipPath>
</defs>
</svg>
