<svg width="400" height="280" viewBox="0 0 400 280" fill="none" xmlns="http://www.w3.org/2000/svg">
<rect x="1" y="1" width="398" height="278" rx="9" fill="#D9D9D9" stroke="#578965" stroke-width="2"/>
<mask id="mask0_669_26" style="mask-type:alpha" maskUnits="userSpaceOnUse" x="0" y="0" width="400" height="280">
<rect x="1" y="1" width="398" height="278" rx="9" fill="#D9D9D9" stroke="#578965" stroke-width="2"/>
</mask>
<g mask="url(#mask0_669_26)">
<rect x="-22" y="251" width="491.966" height="64" transform="rotate(-33.8937 -22 251)" fill="#3D563F"/>
<path d="M78.8924 211.821L75.9682 213.785C75.2302 213.06 74.4312 212.524 73.5712 212.178C72.719 211.826 71.8411 211.64 70.9375 211.62C70.0366 211.586 69.1427 211.708 68.2559 211.984C67.3691 212.26 66.5248 212.667 65.723 213.206C64.2609 214.188 63.1845 215.447 62.4939 216.984C61.8111 218.515 61.603 220.234 61.8697 222.143C62.1443 224.046 62.9838 226.043 64.3884 228.134C65.7929 230.225 67.3242 231.758 68.9823 232.731C70.6482 233.7 72.3189 234.158 73.9944 234.105C75.6777 234.046 77.2505 233.526 78.7126 232.544C79.5144 232.005 80.2108 231.378 80.8019 230.661C81.393 229.945 81.846 229.167 82.1608 228.328C82.4783 227.476 82.6354 226.589 82.6322 225.667C82.6315 224.732 82.4378 223.79 82.0511 222.841L84.9753 220.876C85.5842 222.258 85.9252 223.632 85.9982 224.998C86.0713 226.363 85.9052 227.678 85.4999 228.943C85.0893 230.2 84.4643 231.367 83.625 232.444C82.7935 233.516 81.7686 234.461 80.5501 235.279C78.4906 236.663 76.321 237.39 74.0415 237.461C71.762 237.532 69.5394 236.949 67.3735 235.711C65.2076 234.474 63.2693 232.582 61.5584 230.035C59.8476 227.488 58.829 224.978 58.5026 222.505C58.1761 220.032 58.4768 217.754 59.4045 215.671C60.3323 213.587 61.8259 211.854 63.8855 210.47C65.1039 209.652 66.3665 209.061 67.6732 208.696C68.9877 208.327 70.3071 208.193 71.6311 208.296C72.9499 208.391 74.2276 208.731 75.464 209.315C76.6952 209.891 77.838 210.726 78.8924 211.821ZM107.035 199.488C108.745 202.035 109.764 204.545 110.091 207.018C110.417 209.491 110.116 211.769 109.189 213.852C108.261 215.936 106.767 217.669 104.708 219.052C102.648 220.436 100.479 221.163 98.199 221.234C95.9195 221.305 93.6968 220.722 91.531 219.484C89.3651 218.247 87.4267 216.355 85.7159 213.808C84.0051 211.261 82.9865 208.751 82.6601 206.278C82.3336 203.805 82.6343 201.527 83.562 199.444C84.4898 197.36 85.9834 195.627 88.043 194.243C90.1025 192.86 92.272 192.133 94.5515 192.062C96.831 191.991 99.0537 192.574 101.22 193.811C103.385 195.049 105.324 196.941 107.035 199.488ZM104.205 201.389C102.8 199.298 101.265 197.768 99.599 196.799C97.941 195.825 96.2703 195.368 94.5869 195.426C92.9114 195.479 91.3426 195.997 89.8805 196.979C88.4184 197.961 87.342 199.22 86.6514 200.757C85.9686 202.288 85.7605 204.007 86.0272 205.916C86.3017 207.819 87.1413 209.816 88.5458 211.907C89.9504 213.998 91.4817 215.53 93.1398 216.504C94.8057 217.473 96.4764 217.931 98.1519 217.878C99.8352 217.819 101.408 217.299 102.87 216.317C104.332 215.335 105.405 214.078 106.087 212.547C106.778 211.011 106.986 209.291 106.712 207.388C106.445 205.479 105.609 203.48 104.205 201.389ZM103.841 184.111L107.331 181.766L129.003 196.299L129.286 196.109L124.028 170.551L127.518 168.206L143.739 192.355L141.004 194.193L128.679 175.845L128.444 176.004L133.221 199.42L130.58 201.194L110.709 187.916L110.474 188.074L122.798 206.422L120.062 208.259L103.841 184.111ZM136.306 162.304L152.527 186.452L149.602 188.417L133.381 164.268L136.306 162.304ZM161.318 145.502L177.539 169.651L174.709 171.552L148.814 161.431L148.578 161.589L161.314 180.55L158.39 182.514L142.169 158.365L144.999 156.464L170.973 166.601L171.209 166.443L158.441 147.435L161.318 145.502ZM188.746 138.03C187.954 137.41 187.134 136.928 186.287 136.584C185.443 136.228 184.579 136.021 183.696 135.963C182.822 135.901 181.939 135.997 181.05 136.252C180.16 136.507 179.279 136.928 178.407 137.514C176.976 138.475 175.923 139.719 175.248 141.244C174.574 142.77 174.373 144.484 174.648 146.388C174.922 148.291 175.762 150.288 177.167 152.379C178.571 154.47 180.106 156 181.772 156.968C183.438 157.937 185.117 158.389 186.808 158.326C188.499 158.262 190.092 157.728 191.585 156.725C192.969 155.796 193.989 154.683 194.646 153.386C195.306 152.075 195.567 150.68 195.428 149.199C195.291 147.705 194.726 146.219 193.734 144.741L194.757 144.328L187.493 149.207L185.751 146.613L194.948 140.435L196.69 143.029C198.026 145.018 198.763 147.032 198.902 149.073C199.048 151.107 198.65 153.029 197.709 154.836C196.769 156.631 195.341 158.172 193.423 159.461C191.284 160.897 189.068 161.656 186.773 161.738C184.485 161.814 182.266 161.228 180.116 159.98C177.974 158.727 176.047 156.827 174.337 154.28C173.053 152.37 172.155 150.48 171.642 148.612C171.131 146.731 170.986 144.935 171.205 143.224C171.425 141.514 171.987 139.938 172.891 138.499C173.795 137.059 175.021 135.819 176.569 134.779C177.843 133.923 179.159 133.318 180.518 132.964C181.88 132.597 183.228 132.473 184.563 132.592C185.9 132.697 187.185 133.038 188.416 133.614C189.642 134.183 190.758 134.979 191.765 136.002L188.746 138.03ZM218.446 115.89C217.502 114.79 216.305 114.248 214.855 114.263C213.405 114.279 211.95 114.778 210.487 115.76C209.418 116.478 208.599 117.279 208.03 118.164C207.468 119.043 207.166 119.936 207.125 120.842C207.091 121.743 207.333 122.578 207.851 123.349C208.284 123.993 208.809 124.445 209.427 124.703C210.048 124.947 210.705 125.059 211.398 125.038C212.086 125.01 212.764 124.914 213.43 124.752C214.091 124.581 214.686 124.404 215.213 124.221L218.109 123.234C218.849 122.977 219.702 122.735 220.667 122.508C221.641 122.276 222.651 122.174 223.696 122.202C224.744 122.217 225.761 122.458 226.748 122.924C227.734 123.391 228.608 124.19 229.368 125.322C230.245 126.627 230.695 128.036 230.718 129.549C230.75 131.056 230.322 132.559 229.434 134.056C228.554 135.549 227.187 136.918 225.331 138.164C223.602 139.326 221.917 140.052 220.277 140.344C218.644 140.631 217.131 140.518 215.737 140.006C214.351 139.488 213.167 138.6 212.186 137.343L215.204 135.315C215.896 136.175 216.709 136.723 217.645 136.962C218.583 137.187 219.563 137.168 220.584 136.904C221.607 136.627 222.598 136.167 223.557 135.523C224.673 134.773 225.554 133.919 226.2 132.961C226.84 131.994 227.2 131.011 227.281 130.01C227.356 129.001 227.098 128.057 226.506 127.176C225.968 126.374 225.306 125.872 224.52 125.67C223.734 125.468 222.869 125.455 221.927 125.632C220.985 125.809 220.01 126.064 219.003 126.399L215.461 127.546C213.21 128.27 211.196 128.499 209.42 128.232C207.644 127.966 206.209 127.018 205.116 125.391C204.208 124.039 203.781 122.614 203.836 121.117C203.894 119.607 204.356 118.155 205.224 116.763C206.093 115.357 207.299 114.137 208.839 113.102C210.396 112.057 211.967 111.406 213.552 111.151C215.132 110.889 216.598 110.999 217.95 111.483C219.309 111.961 220.418 112.797 221.276 113.989L218.446 115.89ZM250.845 102.888C252.555 105.435 253.574 107.945 253.901 110.418C254.227 112.891 253.926 115.169 252.999 117.252C252.071 119.336 250.577 121.069 248.518 122.452C246.458 123.836 244.289 124.563 242.009 124.634C239.73 124.705 237.507 124.122 235.341 122.885C233.175 121.647 231.237 119.755 229.526 117.208C227.815 114.661 226.796 112.151 226.47 109.678C226.144 107.205 226.444 104.927 227.372 102.844C228.3 100.76 229.793 99.027 231.853 97.6435C233.913 96.2601 236.082 95.5329 238.362 95.4619C240.641 95.3909 242.864 95.9741 245.03 97.2115C247.195 98.4488 249.134 100.341 250.845 102.888ZM248.015 104.789C246.61 102.698 245.075 101.168 243.409 100.199C241.751 99.2256 240.08 98.7678 238.397 98.8262C236.721 98.8793 235.153 99.397 233.691 100.379C232.228 101.361 231.152 102.62 230.461 104.157C229.779 105.688 229.571 107.407 229.837 109.316C230.112 111.219 230.951 113.216 232.356 115.307C233.76 117.398 235.292 118.931 236.95 119.904C238.616 120.873 240.286 121.331 241.962 121.278C243.645 121.219 245.218 120.699 246.68 119.717C248.142 118.735 249.215 117.478 249.897 115.947C250.588 114.411 250.796 112.691 250.522 110.788C250.255 108.88 249.419 106.88 248.015 104.789ZM276.137 85.8985C277.848 88.4455 278.866 90.9554 279.193 93.4284C279.519 95.9013 279.219 98.1795 278.291 100.263C277.363 102.346 275.87 104.08 273.81 105.463C271.75 106.847 269.581 107.574 267.301 107.645C265.022 107.716 262.799 107.133 260.633 105.895C258.467 104.658 256.529 102.766 254.818 100.219C253.108 97.6718 252.089 95.1618 251.762 92.6889C251.436 90.2159 251.737 87.9377 252.664 85.8544C253.592 83.771 255.086 82.0376 257.145 80.6541C259.205 79.2707 261.374 78.5435 263.654 78.4725C265.933 78.4015 268.156 78.9847 270.322 80.2221C272.488 81.4594 274.426 83.3516 276.137 85.8985ZM273.307 87.7994C271.903 85.7084 270.367 84.1786 268.701 83.21C267.043 82.2362 265.373 81.7784 263.689 81.8368C262.014 81.89 260.445 82.4076 258.983 83.3897C257.521 84.3719 256.444 85.6311 255.754 87.1673C255.071 88.6983 254.863 90.418 255.13 92.3265C255.404 94.2297 256.244 96.2268 257.648 98.3178C259.053 100.409 260.584 101.941 262.242 102.915C263.908 103.884 265.579 104.341 267.254 104.288C268.938 104.23 270.51 103.71 271.972 102.728C273.435 101.745 274.507 100.489 275.19 98.9578C275.88 97.4216 276.089 95.7019 275.814 93.7987C275.547 91.8902 274.712 89.8904 273.307 87.7994ZM292.093 57.6585L308.314 81.8072L305.484 83.7081L279.589 73.5869L279.353 73.7453L292.089 92.7057L289.165 94.67L272.943 70.5214L275.773 68.6205L301.747 78.7572L301.983 78.5988L289.216 59.5911L292.093 57.6585ZM301.246 51.5103L312.669 69.0255L309.933 70.8631L298.038 53.6647L301.246 51.5103ZM315.99 76.9248C315.408 77.3155 314.769 77.4425 314.073 77.3057C313.376 77.169 312.832 76.8097 312.442 76.228C312.051 75.6463 311.924 75.0072 312.061 74.3107C312.198 73.6143 312.557 73.0706 313.138 72.6799C313.72 72.2892 314.359 72.1622 315.056 72.2989C315.752 72.4357 316.296 72.795 316.687 73.3767C316.945 73.7618 317.085 74.1816 317.105 74.6359C317.132 75.0849 317.051 75.5159 316.861 75.9289C316.673 76.3288 316.383 76.6608 315.99 76.9248Z" fill="white"/>
</g>
</svg>
