<svg width="55" height="50" viewBox="0 0 55 50" fill="none" xmlns="http://www.w3.org/2000/svg">
<path d="M32.2346 25.6873L30.0774 23.7264C30.3128 23.2861 30.5189 22.8339 30.695 22.3711H33.7456C34.748 22.3711 35.5609 21.6323 35.5609 20.7208V15.8829C35.5609 14.9717 34.7481 14.2326 33.7456 14.2326H30.6948C30.5187 13.77 30.3126 13.3178 30.0774 12.8775L32.2346 10.9164C32.9435 10.272 32.9435 9.22704 32.2346 8.5826L28.4717 5.16172C27.7626 4.51745 26.6135 4.51745 25.9044 5.16172L23.7472 7.12283C23.263 6.90903 22.7657 6.72149 22.2567 6.56155V3.78815C22.2567 2.87687 21.4439 2.13782 20.4413 2.13782H15.1196C14.1172 2.13782 13.3043 2.87671 13.3043 3.78815V6.56155C12.7954 6.72166 12.298 6.90886 11.8137 7.12283L9.65667 5.16172C9.3163 4.8523 8.85444 4.67839 8.37296 4.67839C7.89148 4.67839 7.42982 4.8523 7.08926 5.16172L3.32611 8.5826C2.98574 8.89203 2.79444 9.31189 2.79444 9.7496C2.79444 10.1873 2.98574 10.607 3.32611 10.9166L5.48333 12.8777C5.24815 13.3178 5.04185 13.77 4.86593 14.2328H1.81537C0.812778 14.2328 0 14.9717 0 15.8829V20.721C0 21.6323 0.812778 22.3713 1.81537 22.3713H4.86593C5.04222 22.8339 5.24815 23.2861 5.48352 23.7265L3.3263 25.6875C2.61741 26.3319 2.61741 27.3769 3.3263 28.0213L7.08926 31.4422C7.79833 32.0863 8.94741 32.0866 9.65648 31.4422L11.8137 29.4811C12.2978 29.6951 12.7954 29.8826 13.3043 30.0425V32.8159C13.3043 33.7272 14.117 34.4663 15.1196 34.4663H20.4415C21.4439 34.4663 22.2569 33.7274 22.2569 32.8159V30.0425C22.7656 29.8824 23.2631 29.6951 23.7474 29.4811L25.9046 31.4422C26.6137 32.0865 27.7628 32.0865 28.4719 31.4422L32.2348 28.0213C32.9437 27.3767 32.9437 26.3318 32.2346 25.6873ZM27.5607 20.3518C27.3107 21.3415 26.8833 22.2794 26.2904 23.1393C25.8409 23.791 25.9467 24.6388 26.545 25.1826L28.3839 26.8543L27.1881 27.9415L25.3491 26.2696C24.7506 25.7257 23.8183 25.6301 23.1015 26.0382C22.1552 26.5774 21.1237 26.9659 20.0356 27.1929C19.2107 27.3649 18.6263 28.0323 18.6263 28.8015V31.1656H16.9352V28.8015C16.9352 28.0323 16.3507 27.3651 15.5259 27.1929C14.4378 26.9659 13.4063 26.5774 12.46 26.0382C11.7437 25.6302 10.8109 25.7255 10.2124 26.2696L8.37333 27.9415L7.17759 26.8543L9.01648 25.1826C9.61482 24.6387 9.72037 23.791 9.27111 23.1393C8.67815 22.2794 8.25074 21.3415 8.00074 20.3518C7.81148 19.6021 7.07759 19.0708 6.23148 19.0708H3.63056V17.5334H6.23093C7.07685 17.5334 7.81074 17.0021 8.00019 16.2526C8.25037 15.2627 8.67759 14.325 9.27056 13.4653C9.72019 12.8136 9.61444 11.9658 9.01611 11.4218L7.17704 9.74994L8.37296 8.6629L10.2119 10.3348C10.8102 10.8789 11.743 10.9743 12.4596 10.5661C13.4056 10.027 14.437 9.63866 15.5254 9.41155C16.3502 9.2395 16.9346 8.57216 16.9346 7.80297V5.43849H18.6257V7.80263C18.6257 8.57182 19.2102 9.239 20.035 9.41122C21.1235 9.63832 22.1548 10.0267 23.1007 10.5658C23.8176 10.9743 24.7504 10.8787 25.3485 10.3344L27.1876 8.66256L28.3833 9.7496L26.5443 11.4215C25.9459 11.9656 25.8404 12.8132 26.2898 13.4649C26.8828 14.3247 27.31 15.2626 27.5602 16.2523C27.7494 17.0018 28.4835 17.5331 29.3294 17.5331H31.9298V19.0705H29.3294C28.4837 19.0706 27.75 19.602 27.5607 20.3518Z" fill="#656966"/>
<path d="M17.7804 11.9603C13.9339 11.9603 10.8046 14.8051 10.8046 18.3019C10.8046 21.7987 13.9339 24.6435 17.7804 24.6435C21.6268 24.6435 24.7561 21.7987 24.7561 18.3019C24.7561 14.8051 21.627 11.9603 17.7804 11.9603ZM17.7804 21.343C15.9357 21.343 14.4352 19.9788 14.4352 18.3019C14.4352 16.625 15.9359 15.2608 17.7804 15.2608C19.6248 15.2608 21.1256 16.625 21.1256 18.3019C21.1256 19.9788 19.625 21.343 17.7804 21.343Z" fill="#656966"/>
<path d="M53.8109 37.22C54.5996 37.0876 55.1211 36.3993 54.9756 35.6823L54.2906 32.3063C54.2207 31.9619 54.0031 31.657 53.6861 31.4585C53.3689 31.26 52.9776 31.1841 52.5991 31.2476L50.5843 31.5853C50.4282 31.3415 50.2591 31.1046 50.0782 30.8753L51.2398 29.3415C51.4582 29.053 51.5417 28.6976 51.4719 28.3533C51.402 28.0089 51.1844 27.704 50.8672 27.5055L47.7569 25.5587C47.0969 25.1454 46.1922 25.2966 45.7374 25.8972L44.5756 27.4312C44.2754 27.3592 43.9719 27.3004 43.6656 27.2548L43.2939 25.4233C43.1483 24.7063 42.3902 24.2317 41.6024 24.3646L37.8889 24.9873C37.51 25.0508 37.1746 25.2486 36.9563 25.5368C36.738 25.8253 36.6545 26.1807 36.7243 26.525L37.0959 28.3567C36.8276 28.4987 36.5671 28.6523 36.3148 28.8168L34.6276 27.7607C34.3102 27.5622 33.9193 27.4866 33.5406 27.5498C33.1617 27.6132 32.8263 27.811 32.608 28.0994L30.4665 30.927C30.248 31.2154 30.1646 31.5708 30.2345 31.9151C30.3043 32.2595 30.5219 32.5646 30.8391 32.7631L32.5263 33.8189C32.4471 34.092 32.3824 34.3678 32.3322 34.6464L30.3174 34.9843C29.9385 35.0477 29.6032 35.2455 29.3848 35.5338C29.1663 35.8223 29.083 36.1777 29.1528 36.522L29.838 39.8979C29.9835 40.6149 30.7406 41.0897 31.5295 40.9567L33.5443 40.6188C33.7004 40.8626 33.8695 41.0996 34.0504 41.3289L32.8887 42.8626C32.6704 43.1511 32.5869 43.5063 32.6567 43.8508C32.7265 44.1952 32.9441 44.5001 33.2613 44.6986L36.3717 46.6454C37.0317 47.0587 37.9365 46.9073 38.3911 46.3068L39.5528 44.773C39.853 44.8449 40.1565 44.9036 40.463 44.9494L40.8346 46.7809C40.9637 47.4169 41.5743 47.8619 42.2611 47.8619C42.3485 47.8619 42.4372 47.8548 42.5261 47.8398L46.2396 47.2171C46.6185 47.1536 46.9539 46.9558 47.1722 46.6676C47.3906 46.3791 47.4741 46.0237 47.4043 45.6794L47.0326 43.8477C47.3009 43.7056 47.5615 43.5521 47.8137 43.3876L49.5007 44.4437C49.8181 44.6424 50.2087 44.7183 50.5878 44.6546C50.9667 44.5912 51.302 44.3934 51.5204 44.105L53.6619 41.2774C54.1167 40.6769 53.95 39.855 53.2894 39.4415L51.6022 38.3853C51.6815 38.1124 51.7461 37.8365 51.7963 37.558L53.8109 37.22ZM50.2026 35.1403C49.5367 35.2519 49.0441 35.7671 49.0152 36.3819C48.9819 37.0848 48.8204 37.7727 48.5352 38.4269C48.2857 38.9989 48.5041 39.6518 49.0617 40.0008L50.4463 40.8676L49.9519 41.5205L48.5674 40.6538C48.0095 40.3046 47.2607 40.3523 46.7622 40.7683C46.1917 41.2439 45.5422 41.6265 44.8319 41.9057C44.2104 42.1498 43.8569 42.7519 43.9796 43.357L44.2846 44.8604L43.4274 45.0041L43.1224 43.5009C42.9996 42.8957 42.4332 42.4479 41.7569 42.4215C40.9832 42.391 40.2263 42.2442 39.5069 41.9851C39.3324 41.9223 39.1515 41.8922 38.9724 41.8922C38.5056 41.8922 38.0532 42.0976 37.7758 42.4637L36.8224 43.7225L36.1043 43.273L37.0576 42.0144C37.4415 41.5075 37.3893 40.8269 36.9317 40.3733C36.4085 39.8546 35.9876 39.2642 35.6804 38.6181C35.4117 38.0533 34.7478 37.7317 34.0839 37.8437L32.4304 38.121L32.2721 37.3417L33.9258 37.0644C34.5917 36.9528 35.0843 36.4376 35.1132 35.8228C35.1465 35.12 35.308 34.4321 35.5932 33.7775C35.8426 33.2055 35.6241 32.5528 35.0665 32.2036L33.6819 31.3371L34.1763 30.6843L35.5609 31.5509C36.1189 31.9003 36.8672 31.8525 37.3661 31.4365C37.9367 30.9609 38.5861 30.5782 39.2969 30.2989C39.918 30.0546 40.2715 29.4526 40.1487 28.8476L39.8437 27.3444L40.7009 27.2006L41.0059 28.7038C41.1287 29.3092 41.6954 29.757 42.3717 29.7833C43.1448 29.8136 43.9015 29.9604 44.6211 30.2196C45.2509 30.4466 45.9687 30.2477 46.3524 29.741L47.3059 28.4821L48.0241 28.9316L47.0707 30.1903C46.6869 30.6974 46.7391 31.378 47.1967 31.8316C47.7198 32.3501 48.1407 32.9403 48.4478 33.5863C48.7161 34.1511 49.3793 34.4728 50.0443 34.361L51.698 34.0838L51.8561 34.8631L50.2026 35.1403Z" fill="#656966"/>
<path d="M44.9643 32.2728C43.8392 31.5688 42.4794 31.3052 41.1363 31.5303C39.7929 31.7555 38.6265 32.4431 37.8518 33.4658C36.2526 35.5772 36.8413 38.4779 39.1639 39.9316C40.0476 40.4848 41.057 40.75 42.0565 40.75C43.6841 40.75 45.2857 40.0468 46.2765 38.7387C47.8756 36.6272 47.2868 33.7266 44.9643 32.2728ZM43.8842 37.2414C43.1933 38.1535 41.8146 38.3848 40.8113 37.7569C39.8078 37.1287 39.5533 35.8754 40.2442 34.9633C40.2444 34.9631 40.2444 34.9631 40.2444 34.9631C40.5789 34.5212 41.0829 34.2242 41.6633 34.1269C41.7985 34.1043 41.9342 34.0931 42.0689 34.0931C42.512 34.0931 42.9444 34.2144 43.3172 34.4478C44.3207 35.0759 44.5752 36.3291 43.8842 37.2414Z" fill="#656966"/>
</svg>
