<svg width="511" height="426" viewBox="0 0 511 426" fill="none" xmlns="http://www.w3.org/2000/svg">
<g clip-path="url(#clip0_8_144)">
<path d="M535 395.832H24V397.065H535V395.832Z" fill="#3F3D56"/>
<path d="M344.611 184.739C344.611 184.739 321.691 203.419 333.151 207.665C344.611 211.91 351.979 192.381 351.979 192.381L344.611 184.739Z" fill="#FFB8B8"/>
<path d="M345.43 177.946L340.518 186.437C340.518 186.437 348.704 186.437 350.341 199.174L356.89 190.683L345.43 177.946Z" fill="#CFCCE0"/>
<path d="M454.302 371.543L455.121 397.016L445.297 402.96L441.205 400.413L442.023 371.543H454.302Z" fill="#FFB8B8"/>
<path d="M396.182 364.75L397.819 391.922L374.899 402.111L376.536 387.676C376.536 387.676 383.085 376.638 381.448 364.75H396.182Z" fill="#FFB8B8"/>
<path d="M431.381 160.115C431.381 160.115 444.479 195.777 446.935 217.854C449.39 239.931 453.483 298.52 453.483 298.52L461.669 374.09L438.749 377.487L428.926 301.067L406.824 225.496L401.912 301.067L397.819 369.845L376.536 370.694L374.899 299.369L365.895 208.514L370.806 165.209L431.381 160.115Z" fill="#2E4133"/>
<path d="M443.66 398.714C443.66 398.714 445.003 384.454 454.973 392.433L456.758 391.072L464.943 409.753C464.943 409.753 474.766 424.188 457.576 425.886C440.386 427.584 442.023 409.753 442.023 409.753L440.386 402.111L441.204 397.107L443.66 398.714Z" fill="#2F2E41"/>
<path d="M396.182 381.732C398.197 382.927 399.867 384.66 401.019 386.75C402.17 388.84 402.761 391.212 402.731 393.62C402.731 402.111 401.912 402.96 401.912 402.96L389.634 406.356C389.634 406.356 381.448 405.507 376.536 410.602C371.625 415.697 347.067 419.093 347.067 412.3C347.067 405.507 367.532 394.469 367.532 394.469C367.532 394.469 373.609 383.823 377.938 384.9C382.266 385.978 383.904 387.676 383.904 388.525C383.904 389.374 381.448 395.318 381.448 395.318C381.448 395.318 395.364 391.922 396.182 381.732Z" fill="#2F2E41"/>
<path d="M394.545 55.6743C405.847 55.6743 415.01 46.1704 415.01 34.4466C415.01 22.7228 405.847 13.2189 394.545 13.2189C383.243 13.2189 374.08 22.7228 374.08 34.4466C374.08 46.1704 383.243 55.6743 394.545 55.6743Z" fill="#FFB8B8"/>
<path d="M409.689 39.9658L418.693 61.1935L394.136 97.7052C394.136 97.7052 392.499 57.7971 387.587 51.0042C382.676 44.2114 409.689 39.9658 409.689 39.9658Z" fill="#FFB8B8"/>
<path d="M398.229 84.1196L402.322 73.0813L405.596 73.9301L409.689 70.5336L415.419 51.8535L423.605 57.797L434.246 169.03L367.941 170.729L376.946 93.4597L385.132 71.383L391.04 63.2802L394.954 75.6284L398.229 84.1196Z" fill="#CCE0D4"/>
<path d="M417.056 131.67L419.561 54.8609C419.561 54.8609 424.423 55.2498 426.061 57.7971C427.698 60.3445 454.711 65.4391 454.711 65.4391L449.8 144.406C449.8 144.406 470.264 207.24 462.897 210.637C455.53 214.033 442.432 213.184 442.432 213.184L417.056 131.67Z" fill="#578965"/>
<path d="M377.355 121.905L386.039 70.1388L366.713 83.6949L371.625 121.056L367.532 146.529C367.532 146.529 351.979 217.005 356.89 219.552C361.802 222.1 367.532 219.552 367.532 219.552L377.355 148.227V121.905Z" fill="#578965"/>
<path d="M372.443 81.9967L366.713 83.695L364.257 117.659L360.164 147.378L340.518 183.89C340.518 183.89 350.341 177.097 354.434 196.626L376.07 157.553L372.443 81.9967Z" fill="#578965"/>
<path d="M436.293 177.946C436.293 177.946 413.373 196.626 424.833 200.872C436.293 205.118 443.66 185.588 443.66 185.588L436.293 177.946Z" fill="#FFB8B8"/>
<path d="M450.209 187.286L442.842 196.626L433.019 178.795L437.111 171.153L450.209 187.286Z" fill="#CFCCE0"/>
<path d="M448.572 68.411L455.12 65.0145C455.12 65.0145 460.032 71.8074 460.85 77.7512C461.669 83.6949 465.762 91.3369 465.762 95.5825C465.762 99.828 477.222 139.736 477.222 139.736L451.027 194.928C451.027 194.928 445.297 174.55 433.019 172.851L453.483 143.133L442.023 121.905L448.572 68.411Z" fill="#578965"/>
<path d="M411.677 14.2211L415.536 12.6186C415.536 12.6186 407.467 3.40383 396.241 4.20514L399.398 0.599343C399.398 0.599343 391.68 -2.60575 384.664 5.80766C380.975 10.2304 376.708 15.4291 374.047 21.2854H369.914L371.639 25.225L365.602 29.1646L371.799 28.457C371.429 30.6144 371.373 32.8168 371.63 34.9916C371.896 37.167 372.967 39.1501 374.615 40.5226C374.615 40.5226 379.401 30.2467 379.401 28.6441V32.6505C379.401 32.6505 383.26 29.0448 383.26 26.6409L385.365 29.4454L386.418 25.0383L399.398 29.4454L397.293 25.8397L405.362 27.0416L402.205 22.6345C402.205 22.6345 411.326 27.8428 411.677 32.2499C412.028 36.6569 414.698 40.8328 414.698 40.8328C414.698 40.8328 421.851 20.2307 411.677 14.2211Z" fill="#2F2E41"/>
<path d="M411.326 34.022C412.592 34.022 413.618 32.6915 413.618 31.0501C413.618 29.4088 412.592 28.0782 411.326 28.0782C410.06 28.0782 409.034 29.4088 409.034 31.0501C409.034 32.6915 410.06 34.022 411.326 34.022Z" fill="#FFB8B8"/>
<path d="M94.7215 175.006H24.0573V154.466H60.9428L94.7215 175.006Z" fill="#29803C"/>
<path d="M23.8633 172.187V232.195H253.328V172.187H23.8633ZM113.359 222.127H38.8115V213.669H113.359V222.127ZM238.38 206.42H38.8115V197.962H238.38V206.42ZM238.38 190.713H38.8115V182.255H238.38V190.713Z" fill="#3D563F"/>
<path d="M94.7215 77.9449H24.0573V57.4048H60.9428L94.7215 77.9449Z" fill="#29803C"/>
<path d="M23.8633 76.3338V136.343H253.328V76.3338H23.8633ZM113.359 126.274H38.8115V117.816H113.359V126.274ZM156.456 110.567H38.8115V102.109H156.456L156.456 110.567ZM238.38 94.86H38.8115V86.4024H238.38V94.86Z" fill="#3D563F"/>
<path d="M94.7215 270.053H24.0573V249.514H60.9428L94.7215 270.053Z" fill="#29803C"/>
<path d="M23.8633 266.026V326.035H253.328V266.026H23.8633ZM156.456 315.966H38.8115V307.508H156.456V315.966ZM156.456 300.259H38.8115V291.802H156.456V300.259ZM238.38 284.552H38.8115V276.095H238.38V284.552Z" fill="#3D563F"/>
<path d="M318.363 123.052H285.748V89.2216H307.88V90.0269H286.525V122.247H317.586V106.137H318.363V123.052Z" fill="#3F3D56"/>
<path d="M301.888 114.228C301.134 111.919 291.683 104.073 297.474 102.754L302.224 109.323L324.059 86.673L326.256 88.951L301.888 114.228Z" fill="#53FE64"/>
<path d="M318.363 218.905H285.748V185.074H307.88V185.88H286.525V218.1H317.586V201.99H318.363V218.905Z" fill="#3F3D56"/>
<path d="M301.888 210.081C301.134 207.772 291.683 199.925 297.474 198.607L302.224 205.176L324.059 182.526L326.256 184.804L301.888 210.081Z" fill="#53FE64"/>
<path d="M318.363 314.355H285.748V280.525H307.88V281.33H286.525V313.55H317.586V297.44H318.363V314.355Z" fill="#3F3D56"/>
<path d="M301.888 305.531C301.134 303.223 291.683 295.376 297.474 294.057L302.224 300.626L324.059 277.976L326.256 280.254L301.888 305.531Z" fill="#53FE64"/>
</g>
<defs>
<clipPath id="clip0_8_144">
<rect width="511" height="426" fill="white"/>
</clipPath>
</defs>
</svg>
