<svg width="1000" height="1000" viewBox="0 0 1000 1000" fill="none" xmlns="http://www.w3.org/2000/svg">
<mask id="mask0_705_8" style="mask-type:alpha" maskUnits="userSpaceOnUse" x="0" y="0" width="1000" height="1000">
<rect width="1000" height="1000" fill="#D9D9D9"/>
</mask>
<g mask="url(#mask0_705_8)">
<path fill-rule="evenodd" clip-rule="evenodd" d="M0 176.951L41.6667 146.609C83.3333 116.267 166.667 56.9612 250 37.6525C333.333 16.9645 416.667 37.6525 500 66.6156C583.333 96.9579 666.667 136.955 750 146.609C833.333 156.263 916.667 136.955 958.333 127.3L1000 116.267V593.469H958.333C916.667 593.469 833.333 593.469 750 593.469C666.667 593.469 583.333 593.469 500 593.469C416.667 593.469 333.333 593.469 250 593.469C166.667 593.469 83.3333 593.469 41.6667 593.469H0V176.951Z" fill="#578965"/>
<path fill-rule="evenodd" clip-rule="evenodd" d="M1000 998.725L958.333 1029.07C916.667 1059.41 833.333 1118.71 750 1138.02C666.667 1158.71 583.333 1138.02 500 1109.06C416.667 1078.72 333.333 1038.72 250 1029.07C166.667 1019.41 83.3334 1038.72 41.6667 1048.38L3.8147e-05 1059.41V582.207H41.6667C83.3334 582.207 166.667 582.207 250 582.207C333.333 582.207 416.667 582.207 500 582.207C583.333 582.207 666.667 582.207 750 582.207C833.333 582.207 916.667 582.207 958.333 582.207H1000V998.725Z" fill="#578965"/>
</g>
</svg>
